  0
SECTION
  2
HEADER
  9
$ACADVER
  1
AC1015
  9
$ACADMAINTVER
 70
    13
  9
$DWGCODEPAGE
  3
ANSI_936
  9
$INSBASE
 10
0.0
 20
0.0
 30
0.0
  9
$EXTMIN
 10
-0.03844921481641
 20
-0.027189087619945
 30
-0.0015258207003583
  9
$EXTMAX
 10
2520.019230474739
 20
1782.013598692852
 30
0.0000000349246037
  9
$LIMMIN
 10
0.0
 20
0.0
  9
$LIMMAX
 10
2520.0
 20
1782.0
  9
$ORTHOMODE
 70
     1
  9
$REGENMODE
 70
     1
  9
$FILLMODE
 70
     1
  9
$QTEXTMODE
 70
     0
  9
$MIRRTEXT
 70
     0
  9
$LTSCALE
 40
60.0
  9
$ATTMODE
 70
     1
  9
$TEXTSIZE
 40
21.0
  9
$TRACEWID
 40
1.0
  9
$TEXTSTYLE
  7
Standard
  9
$CLAYER
  8
08
  9
$CELTYPE
  6
ByLayer
  9
$CECOLOR
 62
   256
  9
$CELTSCALE
 40
1.0
  9
$DISPSILH
 70
     0
  9
$DIMSCALE
 40
6.0
  9
$DIMASZ
 40
2.5
  9
$DIMEXO
 40
0.0
  9
$DIMDLI
 40
10.0
  9
$DIMRND
 40
0.0
  9
$DIMDLE
 40
0.0
  9
$DIMEXE
 40
3.0
  9
$DIMTP
 40
0.0
  9
$DIMTM
 40
0.0
  9
$DIMTXT
 40
3.5
  9
$DIMCEN
 40
0.0
  9
$DIMTSZ
 40
0.0
  9
$DIMTOL
 70
     0
  9
$DIMLIM
 70
     0
  9
$DIMTIH
 70
     0
  9
$DIMTOH
 70
     0
  9
$DIMSE1
 70
     0
  9
$DIMSE2
 70
     0
  9
$DIMTAD
 70
     1
  9
$DIMZIN
 70
     8
  9
$DIMBLK
  1

  9
$DIMASO
 70
     1
  9
$DIMSHO
 70
     1
  9
$DIMPOST
  1

  9
$DIMAPOST
  1

  9
$DIMALT
 70
     0
  9
$DIMALTD
 70
     3
  9
$DIMALTF
 40
0.03937007874016
  9
$DIMLFAC
 40
1.0
  9
$DIMTOFL
 70
     1
  9
$DIMTVP
 40
0.0
  9
$DIMTIX
 70
     0
  9
$DIMSOXD
 70
     0
  9
$DIMSAH
 70
     0
  9
$DIMBLK1
  1

  9
$DIMBLK2
  1

  9
$DIMSTYLE
  2
inte_cir_cir7
  9
$DIMCLRD
 70
     1
  9
$DIMCLRE
 70
     1
  9
$DIMCLRT
 70
     3
  9
$DIMTFAC
 40
1.0
  9
$DIMGAP
 40
0.625
  9
$DIMJUST
 70
     0
  9
$DIMSD1
 70
     0
  9
$DIMSD2
 70
     0
  9
$DIMTOLJ
 70
     0
  9
$DIMTZIN
 70
     8
  9
$DIMALTZ
 70
     0
  9
$DIMALTTZ
 70
     0
  9
$DIMUPT
 70
     0
  9
$DIMDEC
 70
     2
  9
$DIMTDEC
 70
     2
  9
$DIMALTU
 70
     2
  9
$DIMALTTD
 70
     3
  9
$DIMTXSTY
  7
Standard
  9
$DIMAUNIT
 70
     0
  9
$DIMADEC
 70
     0
  9
$DIMALTRND
 40
0.0
  9
$DIMAZIN
 70
     0
  9
$DIMDSEP
 70
    46
  9
$DIMATFIT
 70
     0
  9
$DIMFRAC
 70
     0
  9
$DIMLDRBLK
  1

  9
$DIMLUNIT
 70
     2
  9
$DIMLWD
 70
    -2
  9
$DIMLWE
 70
    -2
  9
$DIMTMOVE
 70
     0
  9
$LUNITS
 70
     2
  9
$LUPREC
 70
     3
  9
$SKETCHINC
 40
1.0
  9
$FILLETRAD
 40
10.0
  9
$AUNITS
 70
     0
  9
$AUPREC
 70
     1
  9
$MENU
  1
.
  9
$ELEVATION
 40
0.0
  9
$PELEVATION
 40
0.0
  9
$THICKNESS
 40
0.0
  9
$LIMCHECK
 70
     0
  9
$CHAMFERA
 40
2.5
  9
$CHAMFERB
 40
2.5
  9
$CHAMFERC
 40
20.0
  9
$CHAMFERD
 40
0.7853981633974483
  9
$SKPOLY
 70
     0
  9
$TDCREATE
 40
2460493.700821389
  9
$TDUCREATE
 40
2460493.367488055
  9
$TDUPDATE
 40
2460493.709123078
  9
$TDUUPDATE
 40
2460493.375789745
  9
$TDINDWG
 40
0.0083020486
  9
$TDUSRTIMER
 40
0.0083020486
  9
$USRTIMER
 70
     1
  9
$ANGBASE
 50
0.0
  9
$ANGDIR
 70
     0
  9
$PDMODE
 70
     0
  9
$PDSIZE
 40
0.0
  9
$PLINEWID
 40
0.0
  9
$SPLFRAME
 70
     0
  9
$SPLINETYPE
 70
     6
  9
$SPLINESEGS
 70
     8
  9
$HANDSEED
  5
2510
  9
$SURFTAB1
 70
     6
  9
$SURFTAB2
 70
     6
  9
$SURFTYPE
 70
     6
  9
$SURFU
 70
     6
  9
$SURFV
 70
     6
  9
$UCSBASE
  2

  9
$UCSNAME
  2

  9
$UCSORG
 10
0.0
 20
0.0
 30
0.0
  9
$UCSXDIR
 10
1.0
 20
0.0
 30
0.0
  9
$UCSYDIR
 10
0.0
 20
1.0
 30
0.0
  9
$UCSORTHOREF
  2

  9
$UCSORTHOVIEW
 70
     0
  9
$UCSORGTOP
 10
0.0
 20
0.0
 30
0.0
  9
$UCSORGBOTTOM
 10
0.0
 20
0.0
 30
0.0
  9
$UCSORGLEFT
 10
0.0
 20
0.0
 30
0.0
  9
$UCSORGRIGHT
 10
0.0
 20
0.0
 30
0.0
  9
$UCSORGFRONT
 10
0.0
 20
0.0
 30
0.0
  9
$UCSORGBACK
 10
0.0
 20
0.0
 30
0.0
  9
$PUCSBASE
  2

  9
$PUCSNAME
  2

  9
$PUCSORG
 10
0.0
 20
0.0
 30
0.0
  9
$PUCSXDIR
 10
1.0
 20
0.0
 30
0.0
  9
$PUCSYDIR
 10
0.0
 20
1.0
 30
0.0
  9
$PUCSORTHOREF
  2

  9
$PUCSORTHOVIEW
 70
     0
  9
$PUCSORGTOP
 10
0.0
 20
0.0
 30
0.0
  9
$PUCSORGBOTTOM
 10
0.0
 20
0.0
 30
0.0
  9
$PUCSORGLEFT
 10
0.0
 20
0.0
 30
0.0
  9
$PUCSORGRIGHT
 10
0.0
 20
0.0
 30
0.0
  9
$PUCSORGFRONT
 10
0.0
 20
0.0
 30
0.0
  9
$PUCSORGBACK
 10
0.0
 20
0.0
 30
0.0
  9
$USERI1
 70
 32060
  9
$USERI2
 70
     0
  9
$USERI3
 70
     0
  9
$USERI4
 70
     0
  9
$USERI5
 70
     0
  9
$USERR1
 40
0.0
  9
$USERR2
 40
0.0
  9
$USERR3
 40
0.0
  9
$USERR4
 40
0.0
  9
$USERR5
 40
0.0
  9
$WORLDVIEW
 70
     1
  9
$SHADEDGE
 70
     3
  9
$SHADEDIF
 70
    70
  9
$TILEMODE
 70
     1
  9
$MAXACTVP
 70
    64
  9
$PINSBASE
 10
0.0
 20
0.0
 30
0.0
  9
$PLIMCHECK
 70
     0
  9
$PEXTMIN
 10
1.000000000000000E+20
 20
1.000000000000000E+20
 30
1.000000000000000E+20
  9
$PEXTMAX
 10
-1.000000000000000E+20
 20
-1.000000000000000E+20
 30
-1.000000000000000E+20
  9
$PLIMMIN
 10
0.0
 20
0.0
  9
$PLIMMAX
 10
420.0
 20
297.0
  9
$UNITMODE
 70
     0
  9
$VISRETAIN
 70
     1
  9
$PLINEGEN
 70
     0
  9
$PSLTSCALE
 70
     1
  9
$TREEDEPTH
 70
  3020
  9
$CMLSTYLE
  2
Standard
  9
$CMLJUST
 70
     0
  9
$CMLSCALE
 40
20.0
  9
$PROXYGRAPHICS
 70
     1
  9
$MEASUREMENT
 70
     1
  9
$CELWEIGHT
370
    -1
  9
$ENDCAPS
280
     0
  9
$JOINSTYLE
280
     0
  9
$LWDISPLAY
290
     0
  9
$INSUNITS
 70
     4
  9
$HYPERLINKBASE
  1

  9
$STYLESHEET
  1
acad.ctb
  9
$XEDIT
290
     1
  9
$CEPSNTYPE
380
     0
  9
$PSTYLEMODE
290
     1
  9
$FINGERPRINTGUID
  2
{921A8E74-0564-48A0-9B90-77A27ECD817E}
  9
$VERSIONGUID
  2
{D0392208-0584-44A8-981A-1F508F51D112}
  9
$EXTNAMES
290
     1
  9
$PSVPSCALE
 40
0.0
  9
$OLESTARTUP
290
     0
  0
ENDSEC
  0
SECTION
  2
CLASSES
  0
CLASS
  1
ACDBDICTIONARYWDFLT
  2
AcDbDictionaryWithDefault
  3
AutoCAD 2000
 90
        0
280
     0
281
     0
  0
CLASS
  1
ACDBPLACEHOLDER
  2
AcDbPlaceHolder
  3
AutoCAD 2000
 90
        0
280
     0
281
     0
  0
CLASS
  1
LAYOUT
  2
AcDbLayout
  3
AutoCAD 2000
 90
        0
280
     0
281
     0
  0
CLASS
  1
DICTIONARYVAR
  2
AcDbDictionaryVar
  3
AutoCAD 2000
 90
        0
280
     0
281
     0
  0
ENDSEC
  0
SECTION
  2
TABLES
  0
TABLE
  2
VPORT
  5
8
330
0
100
AcDbSymbolTable
 70
     2
  0
VPORT
  5
250F
330
8
100
AcDbSymbolTableRecord
100
AcDbViewportTableRecord
  2
*Active
 70
     0
 10
0.0
 20
0.0
 11
1.0
 21
1.0
 12
1259.990390629962
 22
890.9932048026162
 13
0.0
 23
0.0
 14
10.0
 24
10.0
 15
10.0
 25
10.0
 16
0.0
 26
0.0
 36
1.0
 17
0.0
 27
0.0
 37
0.0
 40
1803.171706212651
 41
2.447524752475247
 42
50.0
 43
0.0
 44
0.0
 50
0.0
 51
0.0
 71
     0
 72
   100
 73
     1
 74
     3
 75
     0
 76
     0
 77
     0
 78
     0
281
     0
 65
     1
110
0.0
120
0.0
130
0.0
111
1.0
121
0.0
131
0.0
112
0.0
122
1.0
132
0.0
 79
     0
146
0.0
  0
ENDTAB
  0
TABLE
  2
LTYPE
  5
5
330
0
100
AcDbSymbolTable
 70
     5
  0
LTYPE
  5
14
330
5
100
AcDbSymbolTableRecord
100
AcDbLinetypeTableRecord
  2
ByBlock
 70
     0
  3

 72
    65
 73
     0
 40
0.0
  0
LTYPE
  5
15
330
5
100
AcDbSymbolTableRecord
100
AcDbLinetypeTableRecord
  2
ByLayer
 70
     0
  3

 72
    65
 73
     0
 40
0.0
  0
LTYPE
  5
16
330
5
100
AcDbSymbolTableRecord
100
AcDbLinetypeTableRecord
  2
Continuous
 70
     0
  3
Solid line
 72
    65
 73
     0
 40
0.0
  0
LTYPE
  5
2B
330
5
100
AcDbSymbolTableRecord
100
AcDbLinetypeTableRecord
  2
F
 70
     0
  3
__ __ __ __ __ __ __ __ __ __ __ __ __ __ __ __
 72
    65
 73
     2
 40
0.75
 49
0.5
 74
     0
 49
-0.25
 74
     0
  0
LTYPE
  5
2C
330
5
100
AcDbSymbolTableRecord
100
AcDbLinetypeTableRecord
  2
G
 70
     0
  3
____ _ ____ _ ____ _ ____ _ ____ _ ____ _ ____ 
 72
    65
 73
     4
 40
2.0
 49
1.25
 74
     0
 49
-0.25
 74
     0
 49
0.25
 74
     0
 49
-0.25
 74
     0
  0
LTYPE
  5
2D
330
5
100
AcDbSymbolTableRecord
100
AcDbLinetypeTableRecord
  2
J
 70
     0
  3
____ _ ____ _ ____ _ ____ _ ____ _ ____ _ ____ 
 72
    65
 73
     4
 40
2.0
 49
1.25
 74
     0
 49
-0.25
 74
     0
 49
0.25
 74
     0
 49
-0.25
 74
     0
  0
LTYPE
  5
2E
330
5
100
AcDbSymbolTableRecord
100
AcDbLinetypeTableRecord
  2
K
 70
     0
  3
______  __  __  ______  __  __  ______  __  __ 
 72
    65
 73
     6
 40
2.5
 49
1.25
 74
     0
 49
-0.25
 74
     0
 49
0.25
 74
     0
 49
-0.25
 74
     0
 49
0.25
 74
     0
 49
-0.25
 74
     0
  0
ENDTAB
  0
TABLE
  2
LAYER
  5
2
330
0
100
AcDbSymbolTable
 70
    19
  0
LAYER
  5
10
330
2
100
AcDbSymbolTableRecord
100
AcDbLayerTableRecord
  2
0
 70
     0
 62
     7
  6
Continuous
370
    35
390
F
  0
LAYER
  5
2F
330
2
100
AcDbSymbolTableRecord
100
AcDbLayerTableRecord
  2
01
 70
     0
 62
     7
  6
Continuous
370
    35
390
F
  0
LAYER
  5
30
330
2
100
AcDbSymbolTableRecord
100
AcDbLayerTableRecord
  2
02
 70
     0
 62
     1
  6
Continuous
370
    13
390
F
  0
LAYER
  5
31
330
2
100
AcDbSymbolTableRecord
100
AcDbLayerTableRecord
  2
03
 70
     0
 62
     3
  6
Continuous
370
    13
390
F
  0
LAYER
  5
32
330
2
100
AcDbSymbolTableRecord
100
AcDbLayerTableRecord
  2
04
 70
     0
 62
     2
  6
F
370
    13
390
F
  0
LAYER
  5
33
330
2
100
AcDbSymbolTableRecord
100
AcDbLayerTableRecord
  2
05
 70
     0
 62
     4
  6
G
370
    13
390
F
  0
LAYER
  5
34
330
2
100
AcDbSymbolTableRecord
100
AcDbLayerTableRecord
  2
06
 70
     0
 62
    14
  6
J
370
    13
390
F
  0
LAYER
  5
35
330
2
100
AcDbSymbolTableRecord
100
AcDbLayerTableRecord
  2
07
 70
     0
 62
     6
  6
K
370
    13
390
F
  0
LAYER
  5
36
330
2
100
AcDbSymbolTableRecord
100
AcDbLayerTableRecord
  2
08
 70
     0
 62
     1
  6
Continuous
370
    13
390
F
  0
LAYER
  5
37
330
2
100
AcDbSymbolTableRecord
100
AcDbLayerTableRecord
  2
09
 70
     0
 62
     3
  6
Continuous
370
    13
390
F
  0
LAYER
  5
38
330
2
100
AcDbSymbolTableRecord
100
AcDbLayerTableRecord
  2
10
 70
     0
 62
     3
  6
Continuous
370
    13
390
F
  0
LAYER
  5
39
330
2
100
AcDbSymbolTableRecord
100
AcDbLayerTableRecord
  2
11
 70
     0
 62
     3
  6
Continuous
370
    -3
390
F
  0
LAYER
  5
3A
330
2
100
AcDbSymbolTableRecord
100
AcDbLayerTableRecord
  2
12
 70
     0
 62
     3
  6
Continuous
370
    -3
390
F
  0
LAYER
  5
3B
330
2
100
AcDbSymbolTableRecord
100
AcDbLayerTableRecord
  2
13
 70
     0
 62
     3
  6
Continuous
370
    -3
390
F
  0
LAYER
  5
3C
330
2
100
AcDbSymbolTableRecord
100
AcDbLayerTableRecord
  2
14
 70
     0
 62
     3
  6
Continuous
370
    -3
390
F
  0
LAYER
  5
3D
330
2
100
AcDbSymbolTableRecord
100
AcDbLayerTableRecord
  2
15
 70
     0
 62
     3
  6
Continuous
370
    -3
390
F
  0
LAYER
  5
3E
330
2
100
AcDbSymbolTableRecord
100
AcDbLayerTableRecord
  2
16
 70
     0
 62
     3
  6
Continuous
370
    -3
390
F
  0
LAYER
  5
1D0
330
2
100
AcDbSymbolTableRecord
100
AcDbLayerTableRecord
  2
Defpoints
 70
     0
 62
     7
  6
Continuous
290
     0
370
    -3
390
F
  0
LAYER
  5
15DF
330
2
100
AcDbSymbolTableRecord
100
AcDbLayerTableRecord
  2
PP_HIDEDIM
 70
     0
 62
    -7
  6
Continuous
370
    -3
390
F
  0
ENDTAB
  0
TABLE
  2
STYLE
  5
3
330
0
100
AcDbSymbolTable
 70
     1
  0
STYLE
  5
11
330
3
100
AcDbSymbolTableRecord
100
AcDbTextStyleTableRecord
  2
Standard
 70
     0
 40
0.0
 41
0.707
 50
0.0
 71
     0
 42
21.0
  3
isocp
  4
intecad.shx
  0
ENDTAB
  0
TABLE
  2
VIEW
  5
6
330
0
100
AcDbSymbolTable
 70
     0
  0
ENDTAB
  0
TABLE
  2
UCS
  5
7
330
0
100
AcDbSymbolTable
 70
     0
  0
ENDTAB
  0
TABLE
  2
APPID
  5
9
330
0
100
AcDbSymbolTable
 70
     8
  0
APPID
  5
12
330
9
100
AcDbSymbolTableRecord
100
AcDbRegAppTableRecord
  2
ACAD
 70
     0
  0
APPID
  5
3F
330
9
100
AcDbSymbolTableRecord
100
AcDbRegAppTableRecord
  2
FunctionCurve
 70
     0
  0
APPID
  5
40
330
9
100
AcDbSymbolTableRecord
100
AcDbRegAppTableRecord
  2
InteCAD_Shaft_Design
 70
     0
  0
APPID
  5
135
330
9
100
AcDbSymbolTableRecord
100
AcDbRegAppTableRecord
  2
INTECAD_HUST_CAD_CENTER
 70
     0
  0
APPID
  5
68B
330
9
100
AcDbSymbolTableRecord
100
AcDbRegAppTableRecord
  2
DCO15
 70
     0
  0
APPID
  5
1594
330
9
100
AcDbSymbolTableRecord
100
AcDbRegAppTableRecord
  2
HR_PDS60
 70
     0
  0
APPID
  5
15E0
330
9
100
AcDbSymbolTableRecord
100
AcDbRegAppTableRecord
  2
PDA_PRO
 70
     0
  0
APPID
  5
15E1
330
9
100
AcDbSymbolTableRecord
100
AcDbRegAppTableRecord
  2
PARAPRO_DESIGN_VARIABLE
 70
     0
  0
ENDTAB
  0
TABLE
  2
DIMSTYLE
  5
A
330
0
100
AcDbSymbolTable
 70
     4
100
AcDbDimStyleTable
 71
     4
340
688
340
27
340
134
340
140
  0
DIMSTYLE
105
27
330
A
100
AcDbSymbolTableRecord
100
AcDbDimStyleTableRecord
  2
ISO-25
 70
     0
 40
6.0
 41
2.5
 42
0.0
 43
3.75
 44
3.0
 73
     0
 74
     0
 77
     1
 78
     8
140
3.5
141
2.5
143
0.03937007874016
147
0.625
171
     3
172
     1
176
     1
177
     1
178
     3
271
     2
272
     2
274
     3
283
     0
284
     8
340
11
  0
DIMSTYLE
105
134
330
A
100
AcDbSymbolTableRecord
100
AcDbDimStyleTableRecord
  2
INTE
 70
     0
 40
6.0
 41
3.0
 42
0.0
 43
10.0
 44
3.0
 73
     0
 74
     0
 77
     1
 78
     8
140
3.5
141
0.0
147
1.0
176
     1
177
     1
178
     3
271
     3
272
     3
275
     1
283
     0
340
11
  0
DIMSTYLE
105
140
330
A
100
AcDbSymbolTableRecord
100
AcDbDimStyleTableRecord
  2
STANDARD
 70
     0
 40
6.0
 42
0.0
 78
     8
140
3.5
176
     1
177
     1
178
     3
340
11
  0
DIMSTYLE
105
688
102
{ACAD_REACTORS
330
23FF
330
240C
330
2419
330
2435
330
2444
330
2453
330
2460
330
246D
330
247A
330
2492
330
24A2
330
24C7
330
24D3
330
24DF
330
24EB
330
24F7
330
2503
102
}
330
A
100
AcDbSymbolTableRecord
100
AcDbDimStyleTableRecord
  2
inte_cir_cir7
 70
     0
 40
6.0
 41
2.5
 42
0.0
 43
10.0
 44
3.0
 73
     0
 77
     1
 78
     8
140
3.5
141
0.0
143
0.03937007874016
147
0.625
171
     3
172
     1
176
     1
177
     1
178
     3
271
     2
272
     2
274
     3
283
     0
284
     8
289
     2
340
11
  0
ENDTAB
  0
TABLE
  2
BLOCK_RECORD
  5
1
330
0
100
AcDbSymbolTable
 70
    29
  0
BLOCK_RECORD
  5
1F
330
1
100
AcDbSymbolTableRecord
100
AcDbBlockTableRecord
  2
*Model_Space
340
22
  0
BLOCK_RECORD
  5
1B
330
1
100
AcDbSymbolTableRecord
100
AcDbBlockTableRecord
  2
*Paper_Space
340
1E
  0
BLOCK_RECORD
  5
23
330
1
100
AcDbSymbolTableRecord
100
AcDbBlockTableRecord
  2
*Paper_Space0
340
26
  0
BLOCK_RECORD
  5
1E6
330
1
100
AcDbSymbolTableRecord
100
AcDbBlockTableRecord
  2
_Small
340
0
  0
BLOCK_RECORD
  5
22CC
330
1
100
AcDbSymbolTableRecord
100
AcDbBlockTableRecord
  2
*U2
340
0
102
{BLKREFS
331
22FA
102
}
  0
BLOCK_RECORD
  5
22FD
330
1
100
AcDbSymbolTableRecord
100
AcDbBlockTableRecord
  2
*U3
340
0
  0
BLOCK_RECORD
  5
2303
330
1
100
AcDbSymbolTableRecord
100
AcDbBlockTableRecord
  2
*U4
340
0
  0
BLOCK_RECORD
  5
2336
330
1
100
AcDbSymbolTableRecord
100
AcDbBlockTableRecord
  2
*U5
340
0
102
{BLKREFS
331
2359
102
}
  0
BLOCK_RECORD
  5
2361
330
1
100
AcDbSymbolTableRecord
100
AcDbBlockTableRecord
  2
*U6
340
0
102
{BLKREFS
331
238F
102
}
  0
BLOCK_RECORD
  5
2394
330
1
100
AcDbSymbolTableRecord
100
AcDbBlockTableRecord
  2
*U7
340
0
  0
BLOCK_RECORD
  5
239A
330
1
100
AcDbSymbolTableRecord
100
AcDbBlockTableRecord
  2
*U8
340
0
  0
BLOCK_RECORD
  5
23CD
330
1
100
AcDbSymbolTableRecord
100
AcDbBlockTableRecord
  2
*U9
340
0
102
{BLKREFS
331
23F0
102
}
  0
BLOCK_RECORD
  5
2400
330
1
100
AcDbSymbolTableRecord
100
AcDbBlockTableRecord
  2
*D10
340
0
  0
BLOCK_RECORD
  5
240D
330
1
100
AcDbSymbolTableRecord
100
AcDbBlockTableRecord
  2
*D11
340
0
  0
BLOCK_RECORD
  5
241A
330
1
100
AcDbSymbolTableRecord
100
AcDbBlockTableRecord
  2
*D12
340
0
  0
BLOCK_RECORD
  5
2436
330
1
100
AcDbSymbolTableRecord
100
AcDbBlockTableRecord
  2
*D13
340
0
  0
BLOCK_RECORD
  5
2445
330
1
100
AcDbSymbolTableRecord
100
AcDbBlockTableRecord
  2
*D14
340
0
  0
BLOCK_RECORD
  5
2454
330
1
100
AcDbSymbolTableRecord
100
AcDbBlockTableRecord
  2
*D15
340
0
  0
BLOCK_RECORD
  5
2461
330
1
100
AcDbSymbolTableRecord
100
AcDbBlockTableRecord
  2
*D16
340
0
  0
BLOCK_RECORD
  5
246E
330
1
100
AcDbSymbolTableRecord
100
AcDbBlockTableRecord
  2
*D17
340
0
  0
BLOCK_RECORD
  5
247B
330
1
100
AcDbSymbolTableRecord
100
AcDbBlockTableRecord
  2
*D18
340
0
  0
BLOCK_RECORD
  5
2493
330
1
100
AcDbSymbolTableRecord
100
AcDbBlockTableRecord
  2
*D19
340
0
  0
BLOCK_RECORD
  5
24A3
330
1
100
AcDbSymbolTableRecord
100
AcDbBlockTableRecord
  2
*D20
340
0
  0
BLOCK_RECORD
  5
24B0
330
1
100
AcDbSymbolTableRecord
100
AcDbBlockTableRecord
  2
*D21
340
0
  0
BLOCK_RECORD
  5
24BC
330
1
100
AcDbSymbolTableRecord
100
AcDbBlockTableRecord
  2
*D22
340
0
  0
BLOCK_RECORD
  5
24C8
330
1
100
AcDbSymbolTableRecord
100
AcDbBlockTableRecord
  2
*D23
340
0
  0
BLOCK_RECORD
  5
24D4
330
1
100
AcDbSymbolTableRecord
100
AcDbBlockTableRecord
  2
*D24
340
0
  0
BLOCK_RECORD
  5
24E0
330
1
100
AcDbSymbolTableRecord
100
AcDbBlockTableRecord
  2
*D25
340
0
  0
BLOCK_RECORD
  5
24EC
330
1
100
AcDbSymbolTableRecord
100
AcDbBlockTableRecord
  2
*D26
340
0
  0
BLOCK_RECORD
  5
24F8
330
1
100
AcDbSymbolTableRecord
100
AcDbBlockTableRecord
  2
*D27
340
0
  0
BLOCK_RECORD
  5
2504
330
1
100
AcDbSymbolTableRecord
100
AcDbBlockTableRecord
  2
*D28
340
0
  0
ENDTAB
  0
ENDSEC
  0
SECTION
  2
BLOCKS
  0
BLOCK
  5
20
330
1F
100
AcDbEntity
  8
0
100
AcDbBlockBegin
  2
*Model_Space
 70
     0
 10
0.0
 20
0.0
 30
0.0
  3
*Model_Space
  1

  0
ENDBLK
  5
21
330
1F
100
AcDbEntity
  8
0
100
AcDbBlockEnd
  0
BLOCK
  5
1C
330
1B
100
AcDbEntity
 67
     1
  8
0
100
AcDbBlockBegin
  2
*Paper_Space
 70
     0
 10
0.0
 20
0.0
 30
0.0
  3
*Paper_Space
  1

  0
ENDBLK
  5
1D
330
1B
100
AcDbEntity
 67
     1
  8
0
100
AcDbBlockEnd
  0
BLOCK
  5
24
330
23
100
AcDbEntity
  8
0
100
AcDbBlockBegin
  2
*Paper_Space0
 70
     0
 10
0.0
 20
0.0
 30
0.0
  3
*Paper_Space0
  1

  0
ENDBLK
  5
25
330
23
100
AcDbEntity
  8
0
100
AcDbBlockEnd
  0
BLOCK
  5
1E8
330
1E6
100
AcDbEntity
  8
0
100
AcDbBlockBegin
  2
_Small
 70
     0
 10
0.0
 20
0.0
 30
0.0
  3
_Small
  1

  0
CIRCLE
  5
1E7
330
1E6
100
AcDbEntity
  8
0
  6
ByBlock
 62
     0
370
    -2
100
AcDbCircle
 10
0.0
 20
0.0
 30
0.0
 40
0.25
  0
ENDBLK
  5
1E9
330
1E6
100
AcDbEntity
  8
0
100
AcDbBlockEnd
  0
BLOCK
  5
22F8
330
22CC
100
AcDbEntity
  8
0
100
AcDbBlockBegin
  2
*U2
 70
     1
 10
-0.0000000000000284
 20
0.0000000000000284
 30
0.0
  3
*U2
  1

  0
TEXT
  5
22CD
330
22CC
100
AcDbEntity
  8
13
100
AcDbText
 10
-59.3592244093146
 20
20.26607070542489
 30
0.0
 40
4.999999999999893
  1
比例
 41
0.7070000000000001
100
AcDbText
  0
LINE
  5
22CE
330
22CC
100
AcDbEntity
  8
01
100
AcDbLine
 10
-99.9999999999979
 20
8.999999999999829
 30
0.0
 11
-49.99999999999895
 21
8.999999999999829
 31
0.0
  0
LINE
  5
22CF
330
22CC
100
AcDbEntity
  8
01
100
AcDbLine
 10
-179.9999999999961
 20
27.99999999999943
 30
0.0
 11
-49.99999999999895
 21
27.99999999999943
 31
0.0
  0
LINE
  5
22D0
330
22CC
100
AcDbEntity
  8
01
100
AcDbLine
 10
-99.9999999999979
 20
17.99999999999964
 30
0.0
 11
-0.0000000000000284
 21
17.99999999999964
 31
0.0
  0
LINE
  5
22D1
330
22CC
100
AcDbEntity
  8
01
100
AcDbLine
 10
-179.9999999999961
 20
0.0000000000000284
 30
0.0
 11
-0.0000000000000284
 21
0.0000000000000284
 31
0.0
  0
LINE
  5
22D2
330
22CC
100
AcDbEntity
  8
01
100
AcDbLine
 10
-179.9999999999961
 20
55.99999999999884
 30
0.0
 11
-0.0000000000000284
 21
55.99999999999884
 31
0.0
  0
LINE
  5
22D3
330
22CC
100
AcDbEntity
  8
01
100
AcDbLine
 10
-143.9999999999969
 20
27.99999999999943
 30
0.0
 11
-143.9999999999969
 21
55.99999999999884
 31
0.0
  0
LINE
  5
22D4
330
22CC
100
AcDbEntity
  8
01
100
AcDbLine
 10
-99.9999999999979
 20
0.0000000000000284
 30
0.0
 11
-99.9999999999979
 21
55.99999999999884
 31
0.0
  0
LINE
  5
22D5
330
22CC
100
AcDbEntity
  8
01
100
AcDbLine
 10
-115.9999999999975
 20
0.0000000000000284
 30
0.0
 11
-115.9999999999975
 21
55.99999999999884
 31
0.0
  0
LINE
  5
22D6
330
22CC
100
AcDbEntity
  8
01
100
AcDbLine
 10
-127.9999999999972
 20
0.0000000000000284
 30
0.0
 11
-127.9999999999972
 21
55.99999999999884
 31
0.0
  0
LINE
  5
22D7
330
22CC
100
AcDbEntity
  8
01
100
AcDbLine
 10
-169.9999999999963
 20
27.99999999999943
 30
0.0
 11
-169.9999999999963
 21
55.99999999999884
 31
0.0
  0
LINE
  5
22D8
330
22CC
100
AcDbEntity
  8
01
100
AcDbLine
 10
-159.9999999999965
 20
27.99999999999943
 30
0.0
 11
-159.9999999999965
 21
55.99999999999884
 31
0.0
  0
LINE
  5
22D9
330
22CC
100
AcDbEntity
  8
01
100
AcDbLine
 10
-179.9999999999961
 20
0.0000000000000284
 30
0.0
 11
-179.9999999999961
 21
55.99999999999884
 31
0.0
  0
LINE
  5
22DA
330
22CC
100
AcDbEntity
  8
02
100
AcDbLine
 10
-179.9999999999961
 20
13.99999999999973
 30
0.0
 11
-99.9999999999979
 21
13.99999999999973
 31
0.0
  0
LINE
  5
22DB
330
22CC
100
AcDbEntity
  8
02
100
AcDbLine
 10
-179.9999999999961
 20
6.999999999999872
 30
0.0
 11
-99.9999999999979
 21
6.999999999999872
 31
0.0
  0
LINE
  5
22DC
330
22CC
100
AcDbEntity
  8
02
100
AcDbLine
 10
-179.9999999999961
 20
41.99999999999912
 30
0.0
 11
-99.9999999999979
 21
41.99999999999912
 31
0.0
  0
LINE
  5
22DD
330
22CC
100
AcDbEntity
  8
02
100
AcDbLine
 10
-179.9999999999961
 20
48.99999999999898
 30
0.0
 11
-99.9999999999979
 21
48.99999999999898
 31
0.0
  0
LINE
  5
22DE
330
22CC
100
AcDbEntity
  8
02
100
AcDbLine
 10
-179.9999999999961
 20
20.99999999999957
 30
0.0
 11
-99.9999999999979
 21
20.99999999999957
 31
0.0
  0
LINE
  5
22DF
330
22CC
100
AcDbEntity
  8
02
100
AcDbLine
 10
-179.9999999999961
 20
34.99999999999927
 30
0.0
 11
-99.9999999999979
 21
34.99999999999927
 31
0.0
  0
LINE
  5
22E0
330
22CC
100
AcDbEntity
  8
01
100
AcDbLine
 10
-139.999999999997
 20
0.0000000000000284
 30
0.0
 11
-139.999999999997
 21
27.99999999999943
 31
0.0
  0
LINE
  5
22E1
330
22CC
100
AcDbEntity
  8
01
100
AcDbLine
 10
-155.9999999999966
 20
0.0000000000000284
 30
0.0
 11
-155.9999999999966
 21
27.99999999999943
 31
0.0
  0
TEXT
  5
22E2
330
22CC
100
AcDbEntity
  8
13
100
AcDbText
 10
-178.648116694846
 20
8.505668121617532
 30
0.0
 40
3.499999999999925
  1
审  核
 41
0.7070000000000001
100
AcDbText
  0
LINE
  5
22E3
330
22CC
100
AcDbEntity
  8
01
100
AcDbLine
 10
-167.9999999999964
 20
0.0000000000000284
 30
0.0
 11
-167.9999999999964
 21
27.99999999999943
 31
0.0
  0
TEXT
  5
22E4
330
22CC
100
AcDbEntity
  8
13
100
AcDbText
 10
-178.648116694846
 20
1.505668121617688
 30
0.0
 40
3.499999999999925
  1
工  艺
 41
0.7070000000000001
100
AcDbText
  0
TEXT
  5
22E5
330
22CC
100
AcDbEntity
  8
13
100
AcDbText
 10
-138.6481166948468
 20
1.505668121617688
 30
0.0
 40
3.499999999999925
  1
批  准
 41
0.7070000000000001
100
AcDbText
  0
TEXT
  5
22E6
330
22CC
100
AcDbEntity
  8
13
100
AcDbText
 10
-156.2841946406718
 20
29.50566812161709
 30
0.0
 40
3.499999999999925
  1
分  区
 41
0.7070000000000001
100
AcDbText
  0
TEXT
  5
22E7
330
22CC
100
AcDbEntity
  8
13
100
AcDbText
 10
-168.544589415367
 20
29.50566812161709
 30
0.0
 40
3.499999999999925
  1
处 数
 41
0.7070000000000001
100
AcDbText
  0
TEXT
  5
22E8
330
22CC
100
AcDbEntity
  8
13
100
AcDbText
 10
-178.5445894153668
 20
29.50566812161709
 30
0.0
 40
3.499999999999925
  1
标 记
 41
0.7070000000000001
100
AcDbText
  0
TEXT
  5
22E9
330
22CC
100
AcDbEntity
  8
13
100
AcDbText
 10
-178.648116694846
 20
22.50566812161723
 30
0.0
 40
3.499999999999925
  1
设  计
 41
0.7070000000000001
100
AcDbText
  0
TEXT
  5
22EA
330
22CC
100
AcDbEntity
  8
13
100
AcDbText
 10
-142.6760473644372
 20
29.50566812161709
 30
0.0
 40
3.499999999999925
  1
更改文件号
 41
0.7070000000000001
100
AcDbText
  0
TEXT
  5
22EB
330
22CC
100
AcDbEntity
  8
13
100
AcDbText
 10
-125.4794907216941
 20
29.50566812161709
 30
0.0
 40
3.499999999999925
  1
签 名
 41
0.7070000000000001
100
AcDbText
  0
TEXT
  5
22EC
330
22CC
100
AcDbEntity
  8
13
100
AcDbText
 10
-138.5824030541671
 20
22.50566812161729
 30
0.0
 40
3.499999999999925
  1
标准化
 41
0.7070000000000001
100
AcDbText
  0
LINE
  5
22ED
330
22CC
100
AcDbEntity
  8
01
100
AcDbLine
 10
-61.99999999999869
 20
8.999999999999829
 30
0.0
 11
-61.99999999999869
 21
27.99999999999943
 31
0.0
  0
LINE
  5
22EE
330
22CC
100
AcDbEntity
  8
01
100
AcDbLine
 10
-73.99999999999844
 20
8.999999999999829
 30
0.0
 11
-73.99999999999844
 21
27.99999999999943
 31
0.0
  0
TEXT
  5
22EF
330
22CC
100
AcDbEntity
  8
13
100
AcDbText
 10
-94.41375137642166
 20
1.698366486318533
 30
0.0
 40
4.999999999999893
  1
共    张
 41
0.7070000000000001
100
AcDbText
  0
TEXT
  5
22F0
330
22CC
100
AcDbEntity
  8
13
100
AcDbText
 10
-68.62932786145669
 20
1.698366486318533
 30
0.0
 40
4.999999999999893
  1
第    张
 41
0.7070000000000001
100
AcDbText
  0
TEXT
  5
22F1
330
22CC
100
AcDbEntity
  8
13
100
AcDbText
 10
-94.11963031279952
 20
20.26607070542489
 30
0.0
 40
4.999999999999893
  1
数     量
 41
0.7070000000000001
100
AcDbText
  0
TEXT
  5
22F2
330
22CC
100
AcDbEntity
  8
13
100
AcDbText
 10
-113.3359582804124
 20
29.50566812161709
 30
0.0
 40
3.499999999999925
  1
年 月 日
 41
0.7070000000000001
100
AcDbText
  0
TEXT
  5
22F3
330
22CC
100
AcDbEntity
  8
13
100
AcDbText
 10
-71.83689159018624
 20
20.26607070542489
 30
0.0
 40
4.999999999999893
  1
重量
 41
0.7070000000000001
100
AcDbText
  0
LINE
  5
22F4
330
22CC
100
AcDbEntity
  8
01
100
AcDbLine
 10
-0.0000000000000284
 20
0.0000000000000284
 30
0.0
 11
-0.0000000000000284
 21
55.99999999999884
 31
0.0
  0
LINE
  5
22F5
330
22CC
100
AcDbEntity
  8
01
100
AcDbLine
 10
-49.99999999999895
 20
0.0000000000000284
 30
0.0
 11
-49.99999999999895
 21
55.99999999999884
 31
0.0
  0
MTEXT
  5
22F6
330
22CC
100
AcDbEntity
  8
11
100
AcDbMText
 10
-50.62209361235071
 20
50.39473903239766
 30
0.0
 40
5.0
 41
50.0
 71
     1
 72
     5
  1
佛山市大拓玻璃机械有限公司
 73
     1
 44
1.0
  0
LINE
  5
22F7
330
22CC
100
AcDbEntity
  8
01
100
AcDbLine
 10
-49.99999999999895
 20
37.99999999999922
 30
0.0
 11
-0.0000000000000284
 21
37.99999999999922
 31
0.0
  0
ENDBLK
  5
22F9
330
22CC
100
AcDbEntity
  8
0
100
AcDbBlockEnd
  0
BLOCK
  5
2300
330
22FD
100
AcDbEntity
  8
0
100
AcDbBlockBegin
  2
*U3
 70
     1
 10
251.9593101409512
 20
168.3058696354638
 30
0.0
  3
*U3
  1

  0
LINE
  5
22FE
330
22FD
100
AcDbEntity
  8
01
100
AcDbLine
 10
195.9593101409512
 20
168.3058696354638
 30
0.0
 11
251.9593101409512
 21
168.3058696354638
 31
0.0
  0
LINE
  5
22FF
330
22FD
100
AcDbEntity
  8
01
100
AcDbLine
 10
251.9593101409512
 20
168.3058696354638
 30
0.0
 11
251.9593101409512
 21
182.3058696354638
 31
0.0
  0
ENDBLK
  5
2301
330
22FD
100
AcDbEntity
  8
0
100
AcDbBlockEnd
  0
BLOCK
  5
2313
330
2303
100
AcDbEntity
  8
0
100
AcDbBlockBegin
  2
*U4
 70
     1
 10
9.571746787169871
 20
2.403529381843185
 30
0.0
  3
*U4
  1

  0
LINE
  5
2304
330
2303
100
AcDbEntity
  8
01
100
AcDbLine
 10
-15.42825321283013
 20
50.20840743062371
 30
0.0
 11
9.571746787169871
 21
50.20840743062371
 31
0.0
  0
LINE
  5
2305
330
2303
100
AcDbEntity
  8
02
100
AcDbLine
 10
-15.42825321283013
 20
43.37913913794077
 30
0.0
 11
9.571746787169871
 21
43.37913913794077
 31
0.0
  0
LINE
  5
2306
330
2303
100
AcDbEntity
  8
02
100
AcDbLine
 10
-15.42825321283013
 20
36.54987084525783
 30
0.0
 11
9.571746787169871
 21
36.54987084525783
 31
0.0
  0
LINE
  5
2307
330
2303
100
AcDbEntity
  8
02
100
AcDbLine
 10
-15.42825321283013
 20
29.72060255257488
 30
0.0
 11
9.571746787169871
 21
29.72060255257488
 31
0.0
  0
LINE
  5
2308
330
2303
100
AcDbEntity
  8
02
100
AcDbLine
 10
-15.42825321283013
 20
22.89133425989196
 30
0.0
 11
9.571746787169871
 21
22.89133425989196
 31
0.0
  0
LINE
  5
2309
330
2303
100
AcDbEntity
  8
02
100
AcDbLine
 10
-15.42825321283013
 20
16.06206596720905
 30
0.0
 11
9.571746787169871
 21
16.06206596720905
 31
0.0
  0
LINE
  5
230A
330
2303
100
AcDbEntity
  8
01
100
AcDbLine
 10
-15.42825321283013
 20
9.232797674526111
 30
0.0
 11
9.571746787169871
 21
9.232797674526111
 31
0.0
  0
LINE
  5
230B
330
2303
100
AcDbEntity
  8
02
100
AcDbLine
 10
-15.42825321283013
 20
2.403529381843185
 30
0.0
 11
9.571746787169871
 21
2.403529381843185
 31
0.0
  0
LINE
  5
230C
330
2303
100
AcDbEntity
  8
01
100
AcDbLine
 10
-3.428253212830128
 20
9.232797674526111
 30
0.0
 11
-3.428253212830156
 21
50.20840743062368
 31
0.0
  0
TEXT
  5
230D
330
2303
100
AcDbEntity
  8
11
100
AcDbText
 10
-14.41096414882585
 20
23.60856928078071
 30
0.0
 40
5.0
  1
工 艺
 41
0.6700000000000001
100
AcDbText
  0
TEXT
  5
230E
330
2303
100
AcDbEntity
  8
11
100
AcDbText
 10
-14.20335507138605
 20
9.634679882300801
 30
0.0
 40
5.0
  1
批 准
 41
0.6700000000000001
100
AcDbText
  0
TEXT
  5
230F
330
2303
100
AcDbEntity
  8
11
100
AcDbText
 10
-14.41096504775711
 20
16.72535850512271
 30
0.0
 40
5.0
  1
标 准
 41
0.6700000000000001
100
AcDbText
  0
TEXT
  5
2310
330
2303
100
AcDbEntity
  8
11
100
AcDbText
 10
-14.61857502412814
 20
44.05073073691269
 30
0.0
 40
5.0
  1
设 计
 41
0.6700000000000001
100
AcDbText
  0
TEXT
  5
2311
330
2303
100
AcDbEntity
  8
11
100
AcDbText
 10
-14.41096414882585
 20
37.1675211707259
 30
0.0
 40
5.0
  1
校 对
 41
0.6700000000000001
100
AcDbText
  0
TEXT
  5
2312
330
2303
100
AcDbEntity
  8
11
100
AcDbText
 10
-14.61857412519688
 20
30.49177945170308
 30
0.0
 40
5.0
  1
审 核
 41
0.6700000000000001
100
AcDbText
  0
ENDBLK
  5
2314
330
2303
100
AcDbEntity
  8
0
100
AcDbBlockEnd
  0
BLOCK
  5
2337
330
2336
100
AcDbEntity
  8
0
100
AcDbBlockBegin
  2
*U5
 70
     1
 10
0.0
 20
0.0
 30
0.0
  3
*U5
  1

  0
POLYLINE
  5
2339
330
2336
100
AcDbEntity
  8
02
100
AcDb2dPolyline
 66
     1
 10
0.0
 20
0.0
 30
0.0
  0
VERTEX
  5
233A
330
2339
100
AcDbEntity
  8
02
100
AcDbVertex
100
AcDb2dVertex
 10
0.0
 20
0.0
 30
0.0
  0
VERTEX
  5
233B
330
2339
100
AcDbEntity
  8
02
100
AcDbVertex
100
AcDb2dVertex
 10
420.0
 20
0.0
 30
0.0
  0
SEQEND
  5
233C
330
2339
100
AcDbEntity
  8
02
  0
POLYLINE
  5
233D
330
2336
100
AcDbEntity
  8
02
100
AcDb2dPolyline
 66
     1
 10
0.0
 20
0.0
 30
0.0
  0
VERTEX
  5
233E
330
233D
100
AcDbEntity
  8
02
100
AcDbVertex
100
AcDb2dVertex
 10
420.0
 20
0.0
 30
0.0
  0
VERTEX
  5
233F
330
233D
100
AcDbEntity
  8
02
100
AcDbVertex
100
AcDb2dVertex
 10
420.0
 20
297.0
 30
0.0
  0
SEQEND
  5
2340
330
233D
100
AcDbEntity
  8
02
  0
POLYLINE
  5
2341
330
2336
100
AcDbEntity
  8
02
100
AcDb2dPolyline
 66
     1
 10
0.0
 20
0.0
 30
0.0
  0
VERTEX
  5
2342
330
2341
100
AcDbEntity
  8
02
100
AcDbVertex
100
AcDb2dVertex
 10
420.0
 20
297.0
 30
0.0
  0
VERTEX
  5
2343
330
2341
100
AcDbEntity
  8
02
100
AcDbVertex
100
AcDb2dVertex
 10
0.0
 20
297.0
 30
0.0
  0
SEQEND
  5
2344
330
2341
100
AcDbEntity
  8
02
  0
POLYLINE
  5
2345
330
2336
100
AcDbEntity
  8
02
100
AcDb2dPolyline
 66
     1
 10
0.0
 20
0.0
 30
0.0
  0
VERTEX
  5
2346
330
2345
100
AcDbEntity
  8
02
100
AcDbVertex
100
AcDb2dVertex
 10
0.0
 20
297.0
 30
0.0
  0
VERTEX
  5
2347
330
2345
100
AcDbEntity
  8
02
100
AcDbVertex
100
AcDb2dVertex
 10
0.0
 20
0.0
 30
0.0
  0
SEQEND
  5
2348
330
2345
100
AcDbEntity
  8
02
  0
POLYLINE
  5
2349
330
2336
100
AcDbEntity
  8
01
100
AcDb2dPolyline
 66
     1
 10
0.0
 20
0.0
 30
0.0
  0
VERTEX
  5
234A
330
2349
100
AcDbEntity
  8
01
100
AcDbVertex
100
AcDb2dVertex
 10
25.0
 20
5.0
 30
0.0
  0
VERTEX
  5
234B
330
2349
100
AcDbEntity
  8
01
100
AcDbVertex
100
AcDb2dVertex
 10
415.0
 20
5.0
 30
0.0
  0
SEQEND
  5
234C
330
2349
100
AcDbEntity
  8
01
  0
POLYLINE
  5
234D
330
2336
100
AcDbEntity
  8
01
100
AcDb2dPolyline
 66
     1
 10
0.0
 20
0.0
 30
0.0
  0
VERTEX
  5
234E
330
234D
100
AcDbEntity
  8
01
100
AcDbVertex
100
AcDb2dVertex
 10
415.0
 20
5.0
 30
0.0
  0
VERTEX
  5
234F
330
234D
100
AcDbEntity
  8
01
100
AcDbVertex
100
AcDb2dVertex
 10
415.0
 20
292.0
 30
0.0
  0
SEQEND
  5
2350
330
234D
100
AcDbEntity
  8
01
  0
POLYLINE
  5
2351
330
2336
100
AcDbEntity
  8
01
100
AcDb2dPolyline
 66
     1
 10
0.0
 20
0.0
 30
0.0
  0
VERTEX
  5
2352
330
2351
100
AcDbEntity
  8
01
100
AcDbVertex
100
AcDb2dVertex
 10
415.0
 20
292.0
 30
0.0
  0
VERTEX
  5
2353
330
2351
100
AcDbEntity
  8
01
100
AcDbVertex
100
AcDb2dVertex
 10
25.0
 20
292.0
 30
0.0
  0
SEQEND
  5
2354
330
2351
100
AcDbEntity
  8
01
  0
POLYLINE
  5
2355
330
2336
100
AcDbEntity
  8
01
100
AcDb2dPolyline
 66
     1
 10
0.0
 20
0.0
 30
0.0
  0
VERTEX
  5
2356
330
2355
100
AcDbEntity
  8
01
100
AcDbVertex
100
AcDb2dVertex
 10
25.0
 20
292.0
 30
0.0
  0
VERTEX
  5
2357
330
2355
100
AcDbEntity
  8
01
100
AcDbVertex
100
AcDb2dVertex
 10
25.0
 20
5.0
 30
0.0
  0
SEQEND
  5
2358
330
2355
100
AcDbEntity
  8
01
  0
ENDBLK
  5
2338
330
2336
100
AcDbEntity
  8
0
100
AcDbBlockEnd
  0
BLOCK
  5
238D
330
2361
100
AcDbEntity
  8
0
100
AcDbBlockBegin
  2
*U6
 70
     1
 10
-0.0000000000000284
 20
0.0000000000000284
 30
0.0
  3
*U6
  1

  0
TEXT
  5
2362
330
2361
100
AcDbEntity
  8
13
100
AcDbText
 10
-59.3592244093146
 20
20.26607070542489
 30
0.0
 40
4.999999999999893
  1
比例
 41
0.7070000000000001
100
AcDbText
  0
LINE
  5
2363
330
2361
100
AcDbEntity
  8
01
100
AcDbLine
 10
-99.9999999999979
 20
8.999999999999829
 30
0.0
 11
-49.99999999999895
 21
8.999999999999829
 31
0.0
  0
LINE
  5
2364
330
2361
100
AcDbEntity
  8
01
100
AcDbLine
 10
-179.9999999999961
 20
27.99999999999943
 30
0.0
 11
-49.99999999999895
 21
27.99999999999943
 31
0.0
  0
LINE
  5
2365
330
2361
100
AcDbEntity
  8
01
100
AcDbLine
 10
-99.9999999999979
 20
17.99999999999964
 30
0.0
 11
-0.0000000000000284
 21
17.99999999999964
 31
0.0
  0
LINE
  5
2366
330
2361
100
AcDbEntity
  8
01
100
AcDbLine
 10
-179.9999999999961
 20
0.0000000000000284
 30
0.0
 11
-0.0000000000000284
 21
0.0000000000000284
 31
0.0
  0
LINE
  5
2367
330
2361
100
AcDbEntity
  8
01
100
AcDbLine
 10
-179.9999999999961
 20
55.99999999999884
 30
0.0
 11
-0.0000000000000284
 21
55.99999999999884
 31
0.0
  0
LINE
  5
2368
330
2361
100
AcDbEntity
  8
01
100
AcDbLine
 10
-143.9999999999969
 20
27.99999999999943
 30
0.0
 11
-143.9999999999969
 21
55.99999999999884
 31
0.0
  0
LINE
  5
2369
330
2361
100
AcDbEntity
  8
01
100
AcDbLine
 10
-99.9999999999979
 20
0.0000000000000284
 30
0.0
 11
-99.9999999999979
 21
55.99999999999884
 31
0.0
  0
LINE
  5
236A
330
2361
100
AcDbEntity
  8
01
100
AcDbLine
 10
-115.9999999999975
 20
0.0000000000000284
 30
0.0
 11
-115.9999999999975
 21
55.99999999999884
 31
0.0
  0
LINE
  5
236B
330
2361
100
AcDbEntity
  8
01
100
AcDbLine
 10
-127.9999999999972
 20
0.0000000000000284
 30
0.0
 11
-127.9999999999972
 21
55.99999999999884
 31
0.0
  0
LINE
  5
236C
330
2361
100
AcDbEntity
  8
01
100
AcDbLine
 10
-169.9999999999963
 20
27.99999999999943
 30
0.0
 11
-169.9999999999963
 21
55.99999999999884
 31
0.0
  0
LINE
  5
236D
330
2361
100
AcDbEntity
  8
01
100
AcDbLine
 10
-159.9999999999965
 20
27.99999999999943
 30
0.0
 11
-159.9999999999965
 21
55.99999999999884
 31
0.0
  0
LINE
  5
236E
330
2361
100
AcDbEntity
  8
01
100
AcDbLine
 10
-179.9999999999961
 20
0.0000000000000284
 30
0.0
 11
-179.9999999999961
 21
55.99999999999884
 31
0.0
  0
LINE
  5
236F
330
2361
100
AcDbEntity
  8
02
100
AcDbLine
 10
-179.9999999999961
 20
13.99999999999973
 30
0.0
 11
-99.9999999999979
 21
13.99999999999973
 31
0.0
  0
LINE
  5
2370
330
2361
100
AcDbEntity
  8
02
100
AcDbLine
 10
-179.9999999999961
 20
6.999999999999872
 30
0.0
 11
-99.9999999999979
 21
6.999999999999872
 31
0.0
  0
LINE
  5
2371
330
2361
100
AcDbEntity
  8
02
100
AcDbLine
 10
-179.9999999999961
 20
41.99999999999912
 30
0.0
 11
-99.9999999999979
 21
41.99999999999912
 31
0.0
  0
LINE
  5
2372
330
2361
100
AcDbEntity
  8
02
100
AcDbLine
 10
-179.9999999999961
 20
48.99999999999898
 30
0.0
 11
-99.9999999999979
 21
48.99999999999898
 31
0.0
  0
LINE
  5
2373
330
2361
100
AcDbEntity
  8
02
100
AcDbLine
 10
-179.9999999999961
 20
20.99999999999957
 30
0.0
 11
-99.9999999999979
 21
20.99999999999957
 31
0.0
  0
LINE
  5
2374
330
2361
100
AcDbEntity
  8
02
100
AcDbLine
 10
-179.9999999999961
 20
34.99999999999927
 30
0.0
 11
-99.9999999999979
 21
34.99999999999927
 31
0.0
  0
LINE
  5
2375
330
2361
100
AcDbEntity
  8
01
100
AcDbLine
 10
-139.999999999997
 20
0.0000000000000284
 30
0.0
 11
-139.999999999997
 21
27.99999999999943
 31
0.0
  0
LINE
  5
2376
330
2361
100
AcDbEntity
  8
01
100
AcDbLine
 10
-155.9999999999966
 20
0.0000000000000284
 30
0.0
 11
-155.9999999999966
 21
27.99999999999943
 31
0.0
  0
TEXT
  5
2377
330
2361
100
AcDbEntity
  8
13
100
AcDbText
 10
-178.648116694846
 20
8.505668121617532
 30
0.0
 40
3.499999999999925
  1
审  核
 41
0.7070000000000001
100
AcDbText
  0
LINE
  5
2378
330
2361
100
AcDbEntity
  8
01
100
AcDbLine
 10
-167.9999999999964
 20
0.0000000000000284
 30
0.0
 11
-167.9999999999964
 21
27.99999999999943
 31
0.0
  0
TEXT
  5
2379
330
2361
100
AcDbEntity
  8
13
100
AcDbText
 10
-178.648116694846
 20
1.505668121617688
 30
0.0
 40
3.499999999999925
  1
工  艺
 41
0.7070000000000001
100
AcDbText
  0
TEXT
  5
237A
330
2361
100
AcDbEntity
  8
13
100
AcDbText
 10
-138.6481166948468
 20
1.505668121617688
 30
0.0
 40
3.499999999999925
  1
批  准
 41
0.7070000000000001
100
AcDbText
  0
TEXT
  5
237B
330
2361
100
AcDbEntity
  8
13
100
AcDbText
 10
-156.2841946406718
 20
29.50566812161709
 30
0.0
 40
3.499999999999925
  1
分  区
 41
0.7070000000000001
100
AcDbText
  0
TEXT
  5
237C
330
2361
100
AcDbEntity
  8
13
100
AcDbText
 10
-168.544589415367
 20
29.50566812161709
 30
0.0
 40
3.499999999999925
  1
处 数
 41
0.7070000000000001
100
AcDbText
  0
TEXT
  5
237D
330
2361
100
AcDbEntity
  8
13
100
AcDbText
 10
-178.5445894153668
 20
29.50566812161709
 30
0.0
 40
3.499999999999925
  1
标 记
 41
0.7070000000000001
100
AcDbText
  0
TEXT
  5
237E
330
2361
100
AcDbEntity
  8
13
100
AcDbText
 10
-178.648116694846
 20
22.50566812161723
 30
0.0
 40
3.499999999999925
  1
设  计
 41
0.7070000000000001
100
AcDbText
  0
TEXT
  5
237F
330
2361
100
AcDbEntity
  8
13
100
AcDbText
 10
-142.6760473644372
 20
29.50566812161709
 30
0.0
 40
3.499999999999925
  1
更改文件号
 41
0.7070000000000001
100
AcDbText
  0
TEXT
  5
2380
330
2361
100
AcDbEntity
  8
13
100
AcDbText
 10
-125.4794907216941
 20
29.50566812161709
 30
0.0
 40
3.499999999999925
  1
签 名
 41
0.7070000000000001
100
AcDbText
  0
TEXT
  5
2381
330
2361
100
AcDbEntity
  8
13
100
AcDbText
 10
-138.5824030541671
 20
22.50566812161729
 30
0.0
 40
3.499999999999925
  1
标准化
 41
0.7070000000000001
100
AcDbText
  0
LINE
  5
2382
330
2361
100
AcDbEntity
  8
01
100
AcDbLine
 10
-61.99999999999869
 20
8.999999999999829
 30
0.0
 11
-61.99999999999869
 21
27.99999999999943
 31
0.0
  0
LINE
  5
2383
330
2361
100
AcDbEntity
  8
01
100
AcDbLine
 10
-73.99999999999844
 20
8.999999999999829
 30
0.0
 11
-73.99999999999844
 21
27.99999999999943
 31
0.0
  0
TEXT
  5
2384
330
2361
100
AcDbEntity
  8
13
100
AcDbText
 10
-94.41375137642166
 20
1.698366486318533
 30
0.0
 40
4.999999999999893
  1
共    张
 41
0.7070000000000001
100
AcDbText
  0
TEXT
  5
2385
330
2361
100
AcDbEntity
  8
13
100
AcDbText
 10
-68.62932786145669
 20
1.698366486318533
 30
0.0
 40
4.999999999999893
  1
第    张
 41
0.7070000000000001
100
AcDbText
  0
TEXT
  5
2386
330
2361
100
AcDbEntity
  8
13
100
AcDbText
 10
-94.11963031279952
 20
20.26607070542489
 30
0.0
 40
4.999999999999893
  1
数     量
 41
0.7070000000000001
100
AcDbText
  0
TEXT
  5
2387
330
2361
100
AcDbEntity
  8
13
100
AcDbText
 10
-113.3359582804124
 20
29.50566812161709
 30
0.0
 40
3.499999999999925
  1
年 月 日
 41
0.7070000000000001
100
AcDbText
  0
TEXT
  5
2388
330
2361
100
AcDbEntity
  8
13
100
AcDbText
 10
-71.83689159018624
 20
20.26607070542489
 30
0.0
 40
4.999999999999893
  1
重量
 41
0.7070000000000001
100
AcDbText
  0
LINE
  5
2389
330
2361
100
AcDbEntity
  8
01
100
AcDbLine
 10
-0.0000000000000284
 20
0.0000000000000284
 30
0.0
 11
-0.0000000000000284
 21
55.99999999999884
 31
0.0
  0
LINE
  5
238A
330
2361
100
AcDbEntity
  8
01
100
AcDbLine
 10
-49.99999999999895
 20
0.0000000000000284
 30
0.0
 11
-49.99999999999895
 21
55.99999999999884
 31
0.0
  0
MTEXT
  5
238B
330
2361
100
AcDbEntity
  8
11
100
AcDbMText
 10
-50.62209361235071
 20
50.39473903239766
 30
0.0
 40
5.0
 41
50.0
 71
     1
 72
     5
  1
佛山市大拓玻璃机械有限公司
 73
     1
 44
1.0
  0
LINE
  5
238C
330
2361
100
AcDbEntity
  8
01
100
AcDbLine
 10
-49.99999999999895
 20
37.99999999999922
 30
0.0
 11
-0.0000000000000284
 21
37.99999999999922
 31
0.0
  0
ENDBLK
  5
238E
330
2361
100
AcDbEntity
  8
0
100
AcDbBlockEnd
  0
BLOCK
  5
2397
330
2394
100
AcDbEntity
  8
0
100
AcDbBlockBegin
  2
*U7
 70
     1
 10
251.9593101409512
 20
168.3058696354638
 30
0.0
  3
*U7
  1

  0
LINE
  5
2395
330
2394
100
AcDbEntity
  8
01
100
AcDbLine
 10
195.9593101409512
 20
168.3058696354638
 30
0.0
 11
251.9593101409512
 21
168.3058696354638
 31
0.0
  0
LINE
  5
2396
330
2394
100
AcDbEntity
  8
01
100
AcDbLine
 10
251.9593101409512
 20
168.3058696354638
 30
0.0
 11
251.9593101409512
 21
182.3058696354638
 31
0.0
  0
ENDBLK
  5
2398
330
2394
100
AcDbEntity
  8
0
100
AcDbBlockEnd
  0
BLOCK
  5
23AA
330
239A
100
AcDbEntity
  8
0
100
AcDbBlockBegin
  2
*U8
 70
     1
 10
9.571746787169871
 20
2.403529381843185
 30
0.0
  3
*U8
  1

  0
LINE
  5
239B
330
239A
100
AcDbEntity
  8
01
100
AcDbLine
 10
-15.42825321283013
 20
50.20840743062371
 30
0.0
 11
9.571746787169871
 21
50.20840743062371
 31
0.0
  0
LINE
  5
239C
330
239A
100
AcDbEntity
  8
02
100
AcDbLine
 10
-15.42825321283013
 20
43.37913913794077
 30
0.0
 11
9.571746787169871
 21
43.37913913794077
 31
0.0
  0
LINE
  5
239D
330
239A
100
AcDbEntity
  8
02
100
AcDbLine
 10
-15.42825321283013
 20
36.54987084525783
 30
0.0
 11
9.571746787169871
 21
36.54987084525783
 31
0.0
  0
LINE
  5
239E
330
239A
100
AcDbEntity
  8
02
100
AcDbLine
 10
-15.42825321283013
 20
29.72060255257488
 30
0.0
 11
9.571746787169871
 21
29.72060255257488
 31
0.0
  0
LINE
  5
239F
330
239A
100
AcDbEntity
  8
02
100
AcDbLine
 10
-15.42825321283013
 20
22.89133425989196
 30
0.0
 11
9.571746787169871
 21
22.89133425989196
 31
0.0
  0
LINE
  5
23A0
330
239A
100
AcDbEntity
  8
02
100
AcDbLine
 10
-15.42825321283013
 20
16.06206596720905
 30
0.0
 11
9.571746787169871
 21
16.06206596720905
 31
0.0
  0
LINE
  5
23A1
330
239A
100
AcDbEntity
  8
01
100
AcDbLine
 10
-15.42825321283013
 20
9.232797674526111
 30
0.0
 11
9.571746787169871
 21
9.232797674526111
 31
0.0
  0
LINE
  5
23A2
330
239A
100
AcDbEntity
  8
02
100
AcDbLine
 10
-15.42825321283013
 20
2.403529381843185
 30
0.0
 11
9.571746787169871
 21
2.403529381843185
 31
0.0
  0
LINE
  5
23A3
330
239A
100
AcDbEntity
  8
01
100
AcDbLine
 10
-3.428253212830128
 20
9.232797674526111
 30
0.0
 11
-3.428253212830156
 21
50.20840743062368
 31
0.0
  0
TEXT
  5
23A4
330
239A
100
AcDbEntity
  8
11
100
AcDbText
 10
-14.41096414882585
 20
23.60856928078071
 30
0.0
 40
5.0
  1
工 艺
 41
0.6700000000000001
100
AcDbText
  0
TEXT
  5
23A5
330
239A
100
AcDbEntity
  8
11
100
AcDbText
 10
-14.20335507138605
 20
9.634679882300801
 30
0.0
 40
5.0
  1
批 准
 41
0.6700000000000001
100
AcDbText
  0
TEXT
  5
23A6
330
239A
100
AcDbEntity
  8
11
100
AcDbText
 10
-14.41096504775711
 20
16.72535850512271
 30
0.0
 40
5.0
  1
标 准
 41
0.6700000000000001
100
AcDbText
  0
TEXT
  5
23A7
330
239A
100
AcDbEntity
  8
11
100
AcDbText
 10
-14.61857502412814
 20
44.05073073691269
 30
0.0
 40
5.0
  1
设 计
 41
0.6700000000000001
100
AcDbText
  0
TEXT
  5
23A8
330
239A
100
AcDbEntity
  8
11
100
AcDbText
 10
-14.41096414882585
 20
37.1675211707259
 30
0.0
 40
5.0
  1
校 对
 41
0.6700000000000001
100
AcDbText
  0
TEXT
  5
23A9
330
239A
100
AcDbEntity
  8
11
100
AcDbText
 10
-14.61857412519688
 20
30.49177945170308
 30
0.0
 40
5.0
  1
审 核
 41
0.6700000000000001
100
AcDbText
  0
ENDBLK
  5
23AB
330
239A
100
AcDbEntity
  8
0
100
AcDbBlockEnd
  0
BLOCK
  5
23CE
330
23CD
100
AcDbEntity
  8
0
100
AcDbBlockBegin
  2
*U9
 70
     1
 10
0.0
 20
0.0
 30
0.0
  3
*U9
  1

  0
POLYLINE
  5
23D0
330
23CD
100
AcDbEntity
  8
02
100
AcDb2dPolyline
 66
     1
 10
0.0
 20
0.0
 30
0.0
  0
VERTEX
  5
23D1
330
23D0
100
AcDbEntity
  8
02
100
AcDbVertex
100
AcDb2dVertex
 10
0.0
 20
0.0
 30
0.0
  0
VERTEX
  5
23D2
330
23D0
100
AcDbEntity
  8
02
100
AcDbVertex
100
AcDb2dVertex
 10
420.0
 20
0.0
 30
0.0
  0
SEQEND
  5
23D3
330
23D0
100
AcDbEntity
  8
02
  0
POLYLINE
  5
23D4
330
23CD
100
AcDbEntity
  8
02
100
AcDb2dPolyline
 66
     1
 10
0.0
 20
0.0
 30
0.0
  0
VERTEX
  5
23D5
330
23D4
100
AcDbEntity
  8
02
100
AcDbVertex
100
AcDb2dVertex
 10
420.0
 20
0.0
 30
0.0
  0
VERTEX
  5
23D6
330
23D4
100
AcDbEntity
  8
02
100
AcDbVertex
100
AcDb2dVertex
 10
420.0
 20
297.0
 30
0.0
  0
SEQEND
  5
23D7
330
23D4
100
AcDbEntity
  8
02
  0
POLYLINE
  5
23D8
330
23CD
100
AcDbEntity
  8
02
100
AcDb2dPolyline
 66
     1
 10
0.0
 20
0.0
 30
0.0
  0
VERTEX
  5
23D9
330
23D8
100
AcDbEntity
  8
02
100
AcDbVertex
100
AcDb2dVertex
 10
420.0
 20
297.0
 30
0.0
  0
VERTEX
  5
23DA
330
23D8
100
AcDbEntity
  8
02
100
AcDbVertex
100
AcDb2dVertex
 10
0.0
 20
297.0
 30
0.0
  0
SEQEND
  5
23DB
330
23D8
100
AcDbEntity
  8
02
  0
POLYLINE
  5
23DC
330
23CD
100
AcDbEntity
  8
02
100
AcDb2dPolyline
 66
     1
 10
0.0
 20
0.0
 30
0.0
  0
VERTEX
  5
23DD
330
23DC
100
AcDbEntity
  8
02
100
AcDbVertex
100
AcDb2dVertex
 10
0.0
 20
297.0
 30
0.0
  0
VERTEX
  5
23DE
330
23DC
100
AcDbEntity
  8
02
100
AcDbVertex
100
AcDb2dVertex
 10
0.0
 20
0.0
 30
0.0
  0
SEQEND
  5
23DF
330
23DC
100
AcDbEntity
  8
02
  0
POLYLINE
  5
23E0
330
23CD
100
AcDbEntity
  8
01
100
AcDb2dPolyline
 66
     1
 10
0.0
 20
0.0
 30
0.0
  0
VERTEX
  5
23E1
330
23E0
100
AcDbEntity
  8
01
100
AcDbVertex
100
AcDb2dVertex
 10
25.0
 20
5.0
 30
0.0
  0
VERTEX
  5
23E2
330
23E0
100
AcDbEntity
  8
01
100
AcDbVertex
100
AcDb2dVertex
 10
415.0
 20
5.0
 30
0.0
  0
SEQEND
  5
23E3
330
23E0
100
AcDbEntity
  8
01
  0
POLYLINE
  5
23E4
330
23CD
100
AcDbEntity
  8
01
100
AcDb2dPolyline
 66
     1
 10
0.0
 20
0.0
 30
0.0
  0
VERTEX
  5
23E5
330
23E4
100
AcDbEntity
  8
01
100
AcDbVertex
100
AcDb2dVertex
 10
415.0
 20
5.0
 30
0.0
  0
VERTEX
  5
23E6
330
23E4
100
AcDbEntity
  8
01
100
AcDbVertex
100
AcDb2dVertex
 10
415.0
 20
292.0
 30
0.0
  0
SEQEND
  5
23E7
330
23E4
100
AcDbEntity
  8
01
  0
POLYLINE
  5
23E8
330
23CD
100
AcDbEntity
  8
01
100
AcDb2dPolyline
 66
     1
 10
0.0
 20
0.0
 30
0.0
  0
VERTEX
  5
23E9
330
23E8
100
AcDbEntity
  8
01
100
AcDbVertex
100
AcDb2dVertex
 10
415.0
 20
292.0
 30
0.0
  0
VERTEX
  5
23EA
330
23E8
100
AcDbEntity
  8
01
100
AcDbVertex
100
AcDb2dVertex
 10
25.0
 20
292.0
 30
0.0
  0
SEQEND
  5
23EB
330
23E8
100
AcDbEntity
  8
01
  0
POLYLINE
  5
23EC
330
23CD
100
AcDbEntity
  8
01
100
AcDb2dPolyline
 66
     1
 10
0.0
 20
0.0
 30
0.0
  0
VERTEX
  5
23ED
330
23EC
100
AcDbEntity
  8
01
100
AcDbVertex
100
AcDb2dVertex
 10
25.0
 20
292.0
 30
0.0
  0
VERTEX
  5
23EE
330
23EC
100
AcDbEntity
  8
01
100
AcDbVertex
100
AcDb2dVertex
 10
25.0
 20
5.0
 30
0.0
  0
SEQEND
  5
23EF
330
23EC
100
AcDbEntity
  8
01
  0
ENDBLK
  5
23CF
330
23CD
100
AcDbEntity
  8
0
100
AcDbBlockEnd
  0
BLOCK
  5
240A
330
2400
100
AcDbEntity
  8
0
100
AcDbBlockBegin
  2
*D10
 70
     1
 10
0.0
 20
0.0
 30
0.0
  3
*D10
  1

  0
LINE
  5
2401
330
2400
100
AcDbEntity
  8
08
 62
     1
370
    -2
100
AcDbLine
 10
2373.632493735172
 20
1331.380300392247
 30
0.0
 11
2373.632493735172
 21
1455.010208056207
 31
0.0
  0
LINE
  5
2402
330
2400
100
AcDbEntity
  8
08
 62
     1
370
    -2
100
AcDbLine
 10
1397.632493735172
 20
1212.630300392247
 30
0.0
 11
1397.632493735172
 21
1455.010208056207
 31
0.0
  0
LINE
  5
2403
330
2400
100
AcDbEntity
  8
08
 62
     1
370
    -2
100
AcDbLine
 10
2358.632493735173
 20
1437.010208056207
 30
0.0
 11
1412.632493735173
 21
1437.010208056207
 31
0.0
  0
SOLID
  5
2404
330
2400
100
AcDbEntity
  8
08
 62
     1
100
AcDbTrace
 10
2358.632493735173
 20
1439.510208056207
 30
0.0
 11
2358.632493735173
 21
1434.510208056207
 31
0.0
 12
2373.632493735172
 22
1437.010208056207
 32
0.0
 13
2373.632493735172
 23
1437.010208056207
 33
0.0
  0
SOLID
  5
2405
330
2400
100
AcDbEntity
  8
08
 62
     1
100
AcDbTrace
 10
1412.632493735173
 20
1439.510208056207
 30
0.0
 11
1412.632493735173
 21
1434.510208056207
 31
0.0
 12
1397.632493735172
 22
1437.010208056207
 32
0.0
 13
1397.632493735172
 23
1437.010208056207
 33
0.0
  0
MTEXT
  5
2406
330
2400
100
AcDbEntity
  8
08
 62
     3
100
AcDbMText
 10
1885.632493735172
 20
1451.260208056207
 30
0.0
 40
21.0
 41
0.0
 71
     5
 72
     1
  1
976
 73
     1
 44
1.0
  0
POINT
  5
2407
330
2400
100
AcDbEntity
  8
Defpoints
 62
     0
100
AcDbPoint
 10
2373.632493735172
 20
1331.380300392247
 30
0.0
  0
POINT
  5
2408
330
2400
100
AcDbEntity
  8
Defpoints
 62
     0
100
AcDbPoint
 10
1397.632493735172
 20
1212.630300392247
 30
0.0
  0
POINT
  5
2409
330
2400
100
AcDbEntity
  8
Defpoints
 62
     0
100
AcDbPoint
 10
1397.632493735172
 20
1437.010208056207
 30
0.0
  0
ENDBLK
  5
240B
330
2400
100
AcDbEntity
  8
0
100
AcDbBlockEnd
  0
BLOCK
  5
2417
330
240D
100
AcDbEntity
  8
0
100
AcDbBlockBegin
  2
*D11
 70
     1
 10
0.0
 20
0.0
 30
0.0
  3
*D11
  1

  0
LINE
  5
240E
330
240D
100
AcDbEntity
  8
08
 62
     1
370
    -2
100
AcDbLine
 10
425.6324937351728
 20
1331.380300392247
 30
0.0
 11
293.7051589361636
 21
1331.380300392247
 31
0.0
  0
LINE
  5
240F
330
240D
100
AcDbEntity
  8
08
 62
     1
370
    -2
100
AcDbLine
 10
425.6324937351728
 20
631.3803003922475
 30
0.0
 11
293.7051589361635
 21
631.3803003922475
 31
0.0
  0
LINE
  5
2410
330
240D
100
AcDbEntity
  8
08
 62
     1
370
    -2
100
AcDbLine
 10
311.7051589361636
 20
1316.380300392247
 30
0.0
 11
311.7051589361635
 21
646.3803003922476
 31
0.0
  0
SOLID
  5
2411
330
240D
100
AcDbEntity
  8
08
 62
     1
100
AcDbTrace
 10
309.2051589361636
 20
1316.380300392247
 30
0.0
 11
314.2051589361636
 21
1316.380300392247
 31
0.0
 12
311.7051589361636
 22
1331.380300392247
 32
0.0
 13
311.7051589361636
 23
1331.380300392247
 33
0.0
  0
SOLID
  5
2412
330
240D
100
AcDbEntity
  8
08
 62
     1
100
AcDbTrace
 10
309.2051589361635
 20
646.3803003922476
 30
0.0
 11
314.2051589361635
 21
646.3803003922476
 31
0.0
 12
311.7051589361635
 22
631.3803003922475
 32
0.0
 13
311.7051589361635
 23
631.3803003922475
 33
0.0
  0
MTEXT
  5
2413
330
240D
100
AcDbEntity
  8
08
 62
     3
100
AcDbMText
 10
297.4551589361634
 20
981.3803003922476
 30
0.0
 40
21.0
 41
0.0
 71
     5
 72
     1
  1
700
 11
0.0000000000000001
 21
1.0
 31
0.0
 73
     1
 44
1.0
  0
POINT
  5
2414
330
240D
100
AcDbEntity
  8
Defpoints
 62
     0
100
AcDbPoint
 10
425.6324937351728
 20
1331.380300392247
 30
0.0
  0
POINT
  5
2415
330
240D
100
AcDbEntity
  8
Defpoints
 62
     0
100
AcDbPoint
 10
425.6324937351728
 20
631.3803003922475
 30
0.0
  0
POINT
  5
2416
330
240D
100
AcDbEntity
  8
Defpoints
 62
     0
100
AcDbPoint
 10
311.7051589361635
 20
631.3803003922475
 30
0.0
  0
ENDBLK
  5
2418
330
240D
100
AcDbEntity
  8
0
100
AcDbBlockEnd
  0
BLOCK
  5
2424
330
241A
100
AcDbEntity
  8
0
100
AcDbBlockBegin
  2
*D12
 70
     1
 10
0.0
 20
0.0
 30
0.0
  3
*D12
  1

  0
LINE
  5
241B
330
241A
100
AcDbEntity
  8
08
 62
     1
370
    -2
100
AcDbLine
 10
425.6324937351728
 20
1331.380300392247
 30
0.0
 11
425.6324937351728
 21
1544.302726290279
 31
0.0
  0
LINE
  5
241C
330
241A
100
AcDbEntity
  8
08
 62
     1
370
    -2
100
AcDbLine
 10
2373.632493735172
 20
1331.380300392247
 30
0.0
 11
2373.632493735172
 21
1544.302726290279
 31
0.0
  0
LINE
  5
241D
330
241A
100
AcDbEntity
  8
08
 62
     1
370
    -2
100
AcDbLine
 10
440.6324937351728
 20
1526.302726290279
 30
0.0
 11
2358.632493735173
 21
1526.302726290279
 31
0.0
  0
SOLID
  5
241E
330
241A
100
AcDbEntity
  8
08
 62
     1
100
AcDbTrace
 10
440.6324937351728
 20
1528.802726290279
 30
0.0
 11
440.6324937351728
 21
1523.802726290279
 31
0.0
 12
425.6324937351728
 22
1526.302726290279
 32
0.0
 13
425.6324937351728
 23
1526.302726290279
 33
0.0
  0
SOLID
  5
241F
330
241A
100
AcDbEntity
  8
08
 62
     1
100
AcDbTrace
 10
2358.632493735173
 20
1528.802726290279
 30
0.0
 11
2358.632493735173
 21
1523.802726290279
 31
0.0
 12
2373.632493735172
 22
1526.302726290279
 32
0.0
 13
2373.632493735172
 23
1526.302726290279
 33
0.0
  0
MTEXT
  5
2420
330
241A
100
AcDbEntity
  8
08
 62
     3
100
AcDbMText
 10
1399.632493735172
 20
1540.552726290279
 30
0.0
 40
21.0
 41
0.0
 71
     5
 72
     1
  1
1948
 73
     1
 44
1.0
  0
POINT
  5
2421
330
241A
100
AcDbEntity
  8
Defpoints
 62
     0
100
AcDbPoint
 10
425.6324937351728
 20
1331.380300392247
 30
0.0
  0
POINT
  5
2422
330
241A
100
AcDbEntity
  8
Defpoints
 62
     0
100
AcDbPoint
 10
2373.632493735172
 20
1331.380300392247
 30
0.0
  0
POINT
  5
2423
330
241A
100
AcDbEntity
  8
Defpoints
 62
     0
100
AcDbPoint
 10
2373.632493735172
 20
1526.302726290279
 30
0.0
  0
ENDBLK
  5
2425
330
241A
100
AcDbEntity
  8
0
100
AcDbBlockEnd
  0
BLOCK
  5
2442
330
2436
100
AcDbEntity
  8
0
100
AcDbBlockBegin
  2
*D13
 70
     1
 10
0.0
 20
0.0
 30
0.0
  3
*D13
  1

  0
LINE
  5
2487
330
2436
100
AcDbEntity
  8
08
 62
     1
370
    -2
100
AcDbLine
 10
2343.832493735172
 20
634.3303003922476
 30
0.0
 11
2343.832493735172
 21
517.840015643289
 31
0.0
  0
LINE
  5
2488
330
2436
100
AcDbEntity
  8
08
 62
     1
370
    -2
100
AcDbLine
 10
2373.632493735172
 20
631.3803003922475
 30
0.0
 11
2373.632493735172
 21
517.840015643289
 31
0.0
  0
LINE
  5
2489
330
2436
100
AcDbEntity
  8
08
 62
     1
370
    -2
100
AcDbLine
 10
2328.832493735172
 20
535.840015643289
 30
0.0
 11
2313.832493735172
 21
535.840015643289
 31
0.0
  0
LINE
  5
248A
330
2436
100
AcDbEntity
  8
08
 62
     1
370
    -2
100
AcDbLine
 10
2388.632493735172
 20
535.840015643289
 30
0.0
 11
2442.740094335611
 21
535.840015643289
 31
0.0
  0
LINE
  5
248B
330
2436
100
AcDbEntity
  8
08
 62
     1
370
    -2
100
AcDbLine
 10
2343.832493735172
 20
535.840015643289
 30
0.0
 11
2373.632493735172
 21
535.840015643289
 31
0.0
  0
SOLID
  5
248C
330
2436
100
AcDbEntity
  8
08
 62
     1
100
AcDbTrace
 10
2328.832493735172
 20
538.340015643289
 30
0.0
 11
2328.832493735172
 21
533.3400156432889
 31
0.0
 12
2343.832493735172
 22
535.840015643289
 32
0.0
 13
2343.832493735172
 23
535.840015643289
 33
0.0
  0
SOLID
  5
248D
330
2436
100
AcDbEntity
  8
08
 62
     1
100
AcDbTrace
 10
2388.632493735172
 20
538.340015643289
 30
0.0
 11
2388.632493735172
 21
533.3400156432889
 31
0.0
 12
2373.632493735172
 22
535.840015643289
 32
0.0
 13
2373.632493735172
 23
535.840015643289
 33
0.0
  0
MTEXT
  5
248E
330
2436
100
AcDbEntity
  8
08
 62
     3
100
AcDbMText
 10
2423.186294035392
 20
550.0920825724229
 30
0.0
 40
21.0
 41
0.0
 71
     5
 72
     1
  1
29.8
 73
     1
 44
1.0
  0
POINT
  5
248F
330
2436
100
AcDbEntity
  8
Defpoints
 62
     0
100
AcDbPoint
 10
2343.832493735172
 20
634.3303003922476
 30
0.0
  0
POINT
  5
2490
330
2436
100
AcDbEntity
  8
Defpoints
 62
     0
100
AcDbPoint
 10
2373.632493735172
 20
631.3803003922475
 30
0.0
  0
POINT
  5
2491
330
2436
100
AcDbEntity
  8
Defpoints
 62
     0
100
AcDbPoint
 10
2373.632493735172
 20
535.840015643289
 30
0.0
  0
ENDBLK
  5
2443
330
2436
100
AcDbEntity
  8
0
100
AcDbBlockEnd
  0
BLOCK
  5
2451
330
2445
100
AcDbEntity
  8
0
100
AcDbBlockBegin
  2
*D14
 70
     1
 10
0.0
 20
0.0
 30
0.0
  3
*D14
  1

  0
LINE
  5
2446
330
2445
100
AcDbEntity
  8
08
 62
     1
370
    -2
100
AcDbLine
 10
2334.782493735172
 20
643.3803003922475
 30
0.0
 11
2257.093863424737
 21
643.3803003922477
 31
0.0
  0
LINE
  5
2447
330
2445
100
AcDbEntity
  8
08
 62
     1
370
    -2
100
AcDbLine
 10
2334.782493735172
 20
631.3803003922475
 30
0.0
 11
2257.093863424737
 21
631.3803003922477
 31
0.0
  0
LINE
  5
2448
330
2445
100
AcDbEntity
  8
08
 62
     1
370
    -2
100
AcDbLine
 10
2275.093863424737
 20
658.3803003922477
 30
0.0
 11
2275.093863424737
 21
673.3803003922477
 31
0.0
  0
LINE
  5
2449
330
2445
100
AcDbEntity
  8
08
 62
     1
370
    -2
100
AcDbLine
 10
2275.093863424737
 20
616.3803003922477
 30
0.0
 11
2275.093863424737
 21
579.626303600909
 31
0.0
  0
LINE
  5
244A
330
2445
100
AcDbEntity
  8
08
 62
     1
370
    -2
100
AcDbLine
 10
2275.093863424737
 20
643.3803003922477
 30
0.0
 11
2275.093863424737
 21
631.3803003922477
 31
0.0
  0
SOLID
  5
244B
330
2445
100
AcDbEntity
  8
08
 62
     1
100
AcDbTrace
 10
2272.593863424738
 20
658.3803003922477
 30
0.0
 11
2277.593863424737
 21
658.3803003922477
 31
0.0
 12
2275.093863424737
 22
643.3803003922477
 32
0.0
 13
2275.093863424737
 23
643.3803003922477
 33
0.0
  0
SOLID
  5
244C
330
2445
100
AcDbEntity
  8
08
 62
     1
100
AcDbTrace
 10
2272.593863424738
 20
616.3803003922477
 30
0.0
 11
2277.593863424737
 21
616.3803003922477
 31
0.0
 12
2275.093863424737
 22
631.3803003922477
 32
0.0
 13
2275.093863424737
 23
631.3803003922477
 33
0.0
  0
MTEXT
  5
244D
330
2445
100
AcDbEntity
  8
08
 62
     3
100
AcDbMText
 10
2260.841796495604
 20
590.5033019965787
 30
0.0
 40
21.0
 41
0.0
 71
     5
 72
     1
  1
12
 11
0.0000000000000001
 21
1.0
 31
0.0
 73
     1
 44
1.0
  0
POINT
  5
244E
330
2445
100
AcDbEntity
  8
Defpoints
 62
     0
100
AcDbPoint
 10
2334.782493735172
 20
643.3803003922475
 30
0.0
  0
POINT
  5
244F
330
2445
100
AcDbEntity
  8
Defpoints
 62
     0
100
AcDbPoint
 10
2334.782493735172
 20
631.3803003922475
 30
0.0
  0
POINT
  5
2450
330
2445
100
AcDbEntity
  8
Defpoints
 62
     0
100
AcDbPoint
 10
2275.093863424737
 20
631.3803003922477
 30
0.0
  0
ENDBLK
  5
2452
330
2445
100
AcDbEntity
  8
0
100
AcDbBlockEnd
  0
BLOCK
  5
245E
330
2454
100
AcDbEntity
  8
0
100
AcDbBlockBegin
  2
*D15
 70
     1
 10
0.0
 20
0.0
 30
0.0
  3
*D15
  1

  0
LINE
  5
2455
330
2454
100
AcDbEntity
  8
08
 62
     1
370
    -2
100
AcDbLine
 10
2363.682493735173
 20
1319.380300392247
 30
0.0
 11
2257.093863424738
 21
1319.380300392247
 31
0.0
  0
LINE
  5
2456
330
2454
100
AcDbEntity
  8
08
 62
     1
370
    -2
100
AcDbLine
 10
2352.882493735172
 20
643.3803003922475
 30
0.0
 11
2257.093863424737
 21
643.3803003922477
 31
0.0
  0
LINE
  5
2457
330
2454
100
AcDbEntity
  8
08
 62
     1
370
    -2
100
AcDbLine
 10
2275.093863424738
 20
1304.380300392247
 30
0.0
 11
2275.093863424737
 21
658.3803003922477
 31
0.0
  0
SOLID
  5
2458
330
2454
100
AcDbEntity
  8
08
 62
     1
100
AcDbTrace
 10
2272.593863424738
 20
1304.380300392247
 30
0.0
 11
2277.593863424738
 21
1304.380300392247
 31
0.0
 12
2275.093863424738
 22
1319.380300392247
 32
0.0
 13
2275.093863424738
 23
1319.380300392247
 33
0.0
  0
SOLID
  5
2459
330
2454
100
AcDbEntity
  8
08
 62
     1
100
AcDbTrace
 10
2272.593863424738
 20
658.3803003922477
 30
0.0
 11
2277.593863424737
 21
658.3803003922477
 31
0.0
 12
2275.093863424737
 22
643.3803003922477
 32
0.0
 13
2275.093863424737
 23
643.3803003922477
 33
0.0
  0
MTEXT
  5
245A
330
2454
100
AcDbEntity
  8
08
 62
     3
100
AcDbMText
 10
2260.843863424737
 20
981.380300392248
 30
0.0
 40
21.0
 41
0.0
 71
     5
 72
     1
  1
676
 11
0.0000000000000001
 21
1.0
 31
0.0
 73
     1
 44
1.0
  0
POINT
  5
245B
330
2454
100
AcDbEntity
  8
Defpoints
 62
     0
100
AcDbPoint
 10
2363.682493735173
 20
1319.380300392247
 30
0.0
  0
POINT
  5
245C
330
2454
100
AcDbEntity
  8
Defpoints
 62
     0
100
AcDbPoint
 10
2352.882493735172
 20
643.3803003922475
 30
0.0
  0
POINT
  5
245D
330
2454
100
AcDbEntity
  8
Defpoints
 62
     0
100
AcDbPoint
 10
2275.093863424737
 20
643.3803003922477
 30
0.0
  0
ENDBLK
  5
245F
330
2454
100
AcDbEntity
  8
0
100
AcDbBlockEnd
  0
BLOCK
  5
246B
330
2461
100
AcDbEntity
  8
0
100
AcDbBlockBegin
  2
*D16
 70
     1
 10
0.0
 20
0.0
 30
0.0
  3
*D16
  1

  0
LINE
  5
2462
330
2461
100
AcDbEntity
  8
08
 62
     1
370
    -2
100
AcDbLine
 10
1399.632493735172
 20
631.3803003922475
 30
0.0
 11
1488.255510285109
 21
631.3803003922475
 31
0.0
  0
LINE
  5
2463
330
2461
100
AcDbEntity
  8
08
 62
     1
370
    -2
100
AcDbLine
 10
1408.832493735173
 20
761.3803003922476
 30
0.0
 11
1488.255510285109
 21
761.3803003922476
 31
0.0
  0
LINE
  5
2464
330
2461
100
AcDbEntity
  8
08
 62
     1
370
    -2
100
AcDbLine
 10
1470.255510285109
 20
646.3803003922476
 30
0.0
 11
1470.255510285109
 21
746.3803003922476
 31
0.0
  0
SOLID
  5
2465
330
2461
100
AcDbEntity
  8
08
 62
     1
100
AcDbTrace
 10
1467.755510285109
 20
646.3803003922476
 30
0.0
 11
1472.755510285109
 21
646.3803003922476
 31
0.0
 12
1470.255510285109
 22
631.3803003922475
 32
0.0
 13
1470.255510285109
 23
631.3803003922475
 33
0.0
  0
SOLID
  5
2466
330
2461
100
AcDbEntity
  8
08
 62
     1
100
AcDbTrace
 10
1467.755510285109
 20
746.3803003922476
 30
0.0
 11
1472.755510285109
 21
746.3803003922476
 31
0.0
 12
1470.255510285109
 22
761.3803003922476
 32
0.0
 13
1470.255510285109
 23
761.3803003922476
 33
0.0
  0
MTEXT
  5
2467
330
2461
100
AcDbEntity
  8
08
 62
     3
100
AcDbMText
 10
1456.005510285109
 20
696.3803003922478
 30
0.0
 40
21.0
 41
0.0
 71
     5
 72
     1
  1
130
 11
0.0000000000000001
 21
1.0
 31
0.0
 73
     1
 44
1.0
  0
POINT
  5
2468
330
2461
100
AcDbEntity
  8
Defpoints
 62
     0
100
AcDbPoint
 10
1399.632493735172
 20
631.3803003922475
 30
0.0
  0
POINT
  5
2469
330
2461
100
AcDbEntity
  8
Defpoints
 62
     0
100
AcDbPoint
 10
1408.832493735173
 20
761.3803003922476
 30
0.0
  0
POINT
  5
246A
330
2461
100
AcDbEntity
  8
Defpoints
 62
     0
100
AcDbPoint
 10
1470.255510285109
 20
761.3803003922476
 30
0.0
  0
ENDBLK
  5
246C
330
2461
100
AcDbEntity
  8
0
100
AcDbBlockEnd
  0
BLOCK
  5
2478
330
246E
100
AcDbEntity
  8
0
100
AcDbBlockBegin
  2
*D17
 70
     1
 10
0.0
 20
0.0
 30
0.0
  3
*D17
  1

  0
LINE
  5
246F
330
246E
100
AcDbEntity
  8
08
 62
     1
370
    -2
100
AcDbLine
 10
1408.882493735172
 20
761.3803003922476
 30
0.0
 11
1488.255510285109
 21
761.3803003922476
 31
0.0
  0
LINE
  5
2470
330
246E
100
AcDbEntity
  8
08
 62
     1
370
    -2
100
AcDbLine
 10
1408.882493735172
 20
1201.380300392247
 30
0.0
 11
1488.255510285109
 21
1201.380300392247
 31
0.0
  0
LINE
  5
2471
330
246E
100
AcDbEntity
  8
08
 62
     1
370
    -2
100
AcDbLine
 10
1470.255510285109
 20
776.3803003922475
 30
0.0
 11
1470.255510285109
 21
1186.380300392247
 31
0.0
  0
SOLID
  5
2472
330
246E
100
AcDbEntity
  8
08
 62
     1
100
AcDbTrace
 10
1467.755510285109
 20
776.3803003922475
 30
0.0
 11
1472.755510285109
 21
776.3803003922475
 31
0.0
 12
1470.255510285109
 22
761.3803003922476
 32
0.0
 13
1470.255510285109
 23
761.3803003922476
 33
0.0
  0
SOLID
  5
2473
330
246E
100
AcDbEntity
  8
08
 62
     1
100
AcDbTrace
 10
1467.755510285109
 20
1186.380300392247
 30
0.0
 11
1472.755510285109
 21
1186.380300392247
 31
0.0
 12
1470.255510285109
 22
1201.380300392247
 32
0.0
 13
1470.255510285109
 23
1201.380300392247
 33
0.0
  0
MTEXT
  5
2474
330
246E
100
AcDbEntity
  8
08
 62
     3
100
AcDbMText
 10
1456.005510285109
 20
981.3803003922476
 30
0.0
 40
21.0
 41
0.0
 71
     5
 72
     1
  1
440
 11
0.0000000000000001
 21
1.0
 31
0.0
 73
     1
 44
1.0
  0
POINT
  5
2475
330
246E
100
AcDbEntity
  8
Defpoints
 62
     0
100
AcDbPoint
 10
1408.882493735172
 20
761.3803003922476
 30
0.0
  0
POINT
  5
2476
330
246E
100
AcDbEntity
  8
Defpoints
 62
     0
100
AcDbPoint
 10
1408.882493735172
 20
1201.380300392247
 30
0.0
  0
POINT
  5
2477
330
246E
100
AcDbEntity
  8
Defpoints
 62
     0
100
AcDbPoint
 10
1470.255510285109
 20
1201.380300392247
 30
0.0
  0
ENDBLK
  5
2479
330
246E
100
AcDbEntity
  8
0
100
AcDbBlockEnd
  0
BLOCK
  5
2485
330
247B
100
AcDbEntity
  8
0
100
AcDbBlockBegin
  2
*D18
 70
     1
 10
0.0
 20
0.0
 30
0.0
  3
*D18
  1

  0
LINE
  5
247C
330
247B
100
AcDbEntity
  8
08
 62
     1
370
    -2
100
AcDbLine
 10
2343.832493735172
 20
634.3303003922476
 30
0.0
 11
2343.832493735172
 21
517.840015643289
 31
0.0
  0
LINE
  5
247D
330
247B
100
AcDbEntity
  8
08
 62
     1
370
    -2
100
AcDbLine
 10
454.8324937351727
 20
634.3803003922475
 30
0.0
 11
454.8324937351727
 21
517.840015643289
 31
0.0
  0
LINE
  5
247E
330
247B
100
AcDbEntity
  8
08
 62
     1
370
    -2
100
AcDbLine
 10
2328.832493735172
 20
535.840015643289
 30
0.0
 11
469.8324937351727
 21
535.840015643289
 31
0.0
  0
SOLID
  5
247F
330
247B
100
AcDbEntity
  8
08
 62
     1
100
AcDbTrace
 10
2328.832493735172
 20
538.340015643289
 30
0.0
 11
2328.832493735172
 21
533.3400156432889
 31
0.0
 12
2343.832493735172
 22
535.840015643289
 32
0.0
 13
2343.832493735172
 23
535.840015643289
 33
0.0
  0
SOLID
  5
2480
330
247B
100
AcDbEntity
  8
08
 62
     1
100
AcDbTrace
 10
469.8324937351727
 20
538.340015643289
 30
0.0
 11
469.8324937351727
 21
533.3400156432889
 31
0.0
 12
454.8324937351727
 22
535.840015643289
 32
0.0
 13
454.8324937351727
 23
535.840015643289
 33
0.0
  0
MTEXT
  5
2481
330
247B
100
AcDbEntity
  8
08
 62
     3
100
AcDbMText
 10
1399.332493735172
 20
550.090015643289
 30
0.0
 40
21.0
 41
0.0
 71
     5
 72
     1
  1
1889
 73
     1
 44
1.0
  0
POINT
  5
2482
330
247B
100
AcDbEntity
  8
Defpoints
 62
     0
100
AcDbPoint
 10
2343.832493735172
 20
634.3303003922476
 30
0.0
  0
POINT
  5
2483
330
247B
100
AcDbEntity
  8
Defpoints
 62
     0
100
AcDbPoint
 10
454.8324937351727
 20
634.3803003922475
 30
0.0
  0
POINT
  5
2484
330
247B
100
AcDbEntity
  8
Defpoints
 62
     0
100
AcDbPoint
 10
454.8324937351727
 20
535.840015643289
 30
0.0
  0
ENDBLK
  5
2486
330
247B
100
AcDbEntity
  8
0
100
AcDbBlockEnd
  0
BLOCK
  5
249F
330
2493
100
AcDbEntity
  8
0
100
AcDbBlockBegin
  2
*D19
 70
     1
 10
0.0
 20
0.0
 30
0.0
  3
*D19
  1

  0
LINE
  5
2494
330
2493
100
AcDbEntity
  8
08
 62
     1
370
    -2
100
AcDbLine
 10
463.8324937351728
 20
643.3803003922475
 30
0.0
 11
540.2853119837291
 21
643.3803003922475
 31
0.0
  0
LINE
  5
2495
330
2493
100
AcDbEntity
  8
08
 62
     1
370
    -2
100
AcDbLine
 10
463.8324937351728
 20
631.3803003922475
 30
0.0
 11
540.2853119837291
 21
631.3803003922475
 31
0.0
  0
LINE
  5
2496
330
2493
100
AcDbEntity
  8
08
 62
     1
370
    -2
100
AcDbLine
 10
522.285311983729
 20
658.3803003922476
 30
0.0
 11
522.285311983729
 21
673.3803003922475
 31
0.0
  0
LINE
  5
2497
330
2493
100
AcDbEntity
  8
08
 62
     1
370
    -2
100
AcDbLine
 10
522.285311983729
 20
616.3803003922476
 30
0.0
 11
522.285311983729
 21
579.6263036009089
 31
0.0
  0
LINE
  5
2498
330
2493
100
AcDbEntity
  8
08
 62
     1
370
    -2
100
AcDbLine
 10
522.285311983729
 20
643.3803003922475
 30
0.0
 11
522.285311983729
 21
631.3803003922475
 31
0.0
  0
SOLID
  5
2499
330
2493
100
AcDbEntity
  8
08
 62
     1
100
AcDbTrace
 10
519.7853119837291
 20
658.3803003922476
 30
0.0
 11
524.7853119837291
 21
658.3803003922476
 31
0.0
 12
522.285311983729
 22
643.3803003922475
 32
0.0
 13
522.285311983729
 23
643.3803003922475
 33
0.0
  0
SOLID
  5
249A
330
2493
100
AcDbEntity
  8
08
 62
     1
100
AcDbTrace
 10
519.7853119837291
 20
616.3803003922476
 30
0.0
 11
524.7853119837291
 21
616.3803003922476
 31
0.0
 12
522.285311983729
 22
631.3803003922475
 32
0.0
 13
522.285311983729
 23
631.3803003922475
 33
0.0
  0
MTEXT
  5
249B
330
2493
100
AcDbEntity
  8
08
 62
     3
100
AcDbMText
 10
508.0332450545951
 20
590.5033019965784
 30
0.0
 40
21.0
 41
0.0
 71
     5
 72
     1
  1
12
 11
0.0000000000000001
 21
1.0
 31
0.0
 73
     1
 44
1.0
  0
POINT
  5
249C
330
2493
100
AcDbEntity
  8
Defpoints
 62
     0
100
AcDbPoint
 10
463.8324937351728
 20
643.3803003922475
 30
0.0
  0
POINT
  5
249D
330
2493
100
AcDbEntity
  8
Defpoints
 62
     0
100
AcDbPoint
 10
463.8324937351728
 20
631.3803003922475
 30
0.0
  0
POINT
  5
249E
330
2493
100
AcDbEntity
  8
Defpoints
 62
     0
100
AcDbPoint
 10
522.285311983729
 20
631.3803003922475
 30
0.0
  0
ENDBLK
  5
24A0
330
2493
100
AcDbEntity
  8
0
100
AcDbBlockEnd
  0
BLOCK
  5
24AD
330
24A3
100
AcDbEntity
  8
0
100
AcDbBlockBegin
  2
*D20
 70
     1
 10
0.0
 20
0.0
 30
0.0
  3
*D20
  1

  0
LINE
  5
24A4
330
24A3
100
AcDbEntity
  8
08
 62
     1
370
    -2
100
AcDbLine
 10
463.9324937351728
 20
1318.880300392247
 30
0.0
 11
540.2853119837293
 21
1318.880300392247
 31
0.0
  0
LINE
  5
24A5
330
24A3
100
AcDbEntity
  8
08
 62
     1
370
    -2
100
AcDbLine
 10
463.9324937351728
 20
643.3803003922475
 30
0.0
 11
540.2853119837291
 21
643.3803003922475
 31
0.0
  0
LINE
  5
24A6
330
24A3
100
AcDbEntity
  8
08
 62
     1
370
    -2
100
AcDbLine
 10
522.2853119837293
 20
1303.880300392247
 30
0.0
 11
522.285311983729
 21
658.3803003922476
 31
0.0
  0
SOLID
  5
24A7
330
24A3
100
AcDbEntity
  8
08
 62
     1
100
AcDbTrace
 10
519.7853119837293
 20
1303.880300392247
 30
0.0
 11
524.7853119837293
 21
1303.880300392247
 31
0.0
 12
522.2853119837293
 22
1318.880300392247
 32
0.0
 13
522.2853119837293
 23
1318.880300392247
 33
0.0
  0
SOLID
  5
24A8
330
24A3
100
AcDbEntity
  8
08
 62
     1
100
AcDbTrace
 10
519.7853119837291
 20
658.3803003922476
 30
0.0
 11
524.7853119837291
 21
658.3803003922476
 31
0.0
 12
522.285311983729
 22
643.3803003922475
 32
0.0
 13
522.285311983729
 23
643.3803003922475
 33
0.0
  0
MTEXT
  5
24A9
330
24A3
100
AcDbEntity
  8
08
 62
     3
100
AcDbMText
 10
508.035311983729
 20
981.1303003922475
 30
0.0
 40
21.0
 41
0.0
 71
     5
 72
     1
  1
675.5
 11
0.0000000000000001
 21
1.0
 31
0.0
 73
     1
 44
1.0
  0
POINT
  5
24AA
330
24A3
100
AcDbEntity
  8
Defpoints
 62
     0
100
AcDbPoint
 10
463.9324937351728
 20
1318.880300392247
 30
0.0
  0
POINT
  5
24AB
330
24A3
100
AcDbEntity
  8
Defpoints
 62
     0
100
AcDbPoint
 10
463.9324937351728
 20
643.3803003922475
 30
0.0
  0
POINT
  5
24AC
330
24A3
100
AcDbEntity
  8
Defpoints
 62
     0
100
AcDbPoint
 10
522.285311983729
 20
643.3803003922475
 30
0.0
  0
ENDBLK
  5
24AE
330
24A3
100
AcDbEntity
  8
0
100
AcDbBlockEnd
  0
BLOCK
  5
24B9
330
24B0
100
AcDbEntity
  8
0
100
AcDbBlockBegin
  2
*D21
 70
     1
 10
0.0
 20
0.0
 30
0.0
  3
*D21
  1

  0
LINE
  5
24B1
330
24B0
100
AcDbEntity
  8
08
 62
     1
370
    -2
100
AcDbLine
 10
1379.967304262898
 20
1189.569136990251
 30
0.0
 11
1367.497758753057
 21
1181.231845177077
 31
0.0
  0
LINE
  5
24B2
330
24B0
100
AcDbEntity
  8
08
 62
     1
370
    -2
100
AcDbLine
 10
1415.297683207447
 20
1213.191463794243
 30
0.0
 11
1469.071835810717
 21
1249.145524983225
 31
0.0
  0
LINE
  5
24B3
330
24B0
100
AcDbEntity
  8
08
 62
     1
370
    -2
100
AcDbLine
 10
1392.436849772739
 20
1197.906428803425
 30
0.0
 11
1402.828137697606
 21
1204.85417198107
 31
0.0
  0
SOLID
  5
24B4
330
24B0
100
AcDbEntity
  8
08
 62
     1
100
AcDbTrace
 10
1378.577755627369
 20
1191.647394575224
 30
0.0
 11
1381.356852898427
 21
1187.490879405277
 31
0.0
 12
1392.436849772739
 22
1197.906428803425
 32
0.0
 13
1392.436849772739
 23
1197.906428803425
 33
0.0
  0
SOLID
  5
24B5
330
24B0
100
AcDbEntity
  8
08
 62
     1
100
AcDbTrace
 10
1413.908134571918
 20
1215.269721379217
 30
0.0
 11
1416.687231842976
 21
1211.11320620927
 31
0.0
 12
1402.828137697606
 22
1204.85417198107
 32
0.0
 13
1402.828137697606
 23
1204.85417198107
 33
0.0
  0
MTEXT
  5
24B6
330
24B0
100
AcDbEntity
  8
08
 62
     3
100
AcDbMText
 10
1440.497956202064
 20
1247.18492677413
 30
0.0
 40
21.0
 41
0.0
 71
     5
 72
     1
  1
\U+220512.5
 11
0.8313030339893725
 21
0.5558194542115849
 31
0.0
 73
     1
 44
1.0
  0
POINT
  5
24B7
330
24B0
100
AcDbEntity
  8
Defpoints
 62
     0
100
AcDbPoint
 10
1402.828137697606
 20
1204.85417198107
 30
0.0
  0
POINT
  5
24B8
330
24B0
100
AcDbEntity
  8
Defpoints
 62
     0
100
AcDbPoint
 10
1392.436849772739
 20
1197.906428803425
 30
0.0
  0
ENDBLK
  5
24BA
330
24B0
100
AcDbEntity
  8
0
100
AcDbBlockEnd
  0
BLOCK
  5
24C5
330
24BC
100
AcDbEntity
  8
0
100
AcDbBlockBegin
  2
*D22
 70
     1
 10
0.0
 20
0.0
 30
0.0
  3
*D22
  1

  0
LINE
  5
24BD
330
24BC
100
AcDbEntity
  8
08
 62
     1
370
    -2
100
AcDbLine
 10
1382.86259824365
 20
746.1720727779095
 30
0.0
 11
1372.412200490215
 21
735.4115343715382
 31
0.0
  0
LINE
  5
24BE
330
24BC
100
AcDbEntity
  8
08
 62
     1
370
    -2
100
AcDbLine
 10
1412.402389226695
 20
776.5885280065856
 30
0.0
 11
1458.075016576264
 21
823.6166002685585
 31
0.0
  0
LINE
  5
24BF
330
24BC
100
AcDbEntity
  8
08
 62
     1
370
    -2
100
AcDbLine
 10
1393.312995997086
 20
756.9326111842809
 30
0.0
 11
1401.951991473259
 21
765.8279896002142
 31
0.0
  0
SOLID
  5
24C0
330
24BC
100
AcDbEntity
  8
08
 62
     1
100
AcDbTrace
 10
1381.069175175922
 20
747.9138057368154
 30
0.0
 11
1384.656021311379
 21
744.4303398190036
 31
0.0
 12
1393.312995997086
 22
756.9326111842809
 32
0.0
 13
1393.312995997086
 23
756.9326111842809
 33
0.0
  0
SOLID
  5
24C1
330
24BC
100
AcDbEntity
  8
08
 62
     1
100
AcDbTrace
 10
1410.608966158966
 20
778.3302609654915
 30
0.0
 11
1414.195812294424
 21
774.8467950476797
 31
0.0
 12
1401.951991473259
 22
765.8279896002142
 32
0.0
 13
1401.951991473259
 23
765.8279896002142
 33
0.0
  0
MTEXT
  5
24C2
330
24BC
100
AcDbEntity
  8
08
 62
     3
100
AcDbMText
 10
1430.239907540789
 20
815.4121512219601
 30
0.0
 40
21.0
 41
0.0
 71
     5
 72
     1
  1
\U+220512.4
 11
0.6966931835623662
 21
0.7173692270914157
 31
0.0
 73
     1
 44
1.0
  0
POINT
  5
24C3
330
24BC
100
AcDbEntity
  8
Defpoints
 62
     0
100
AcDbPoint
 10
1401.951991473259
 20
765.8279896002142
 30
0.0
  0
POINT
  5
24C4
330
24BC
100
AcDbEntity
  8
Defpoints
 62
     0
100
AcDbPoint
 10
1393.312995997086
 20
756.9326111842809
 30
0.0
  0
ENDBLK
  5
24C6
330
24BC
100
AcDbEntity
  8
0
100
AcDbBlockEnd
  0
BLOCK
  5
24D1
330
24C8
100
AcDbEntity
  8
0
100
AcDbBlockBegin
  2
*D23
 70
     1
 10
0.0
 20
0.0
 30
0.0
  3
*D23
  1

  0
LINE
  5
24C9
330
24C8
100
AcDbEntity
  8
08
 62
     1
370
    -2
100
AcDbLine
 10
1416.295178022451
 20
1191.218277208188
 30
0.0
 11
1429.468837519354
 21
1184.045084372381
 31
0.0
  0
LINE
  5
24CA
330
24C8
100
AcDbEntity
  8
08
 62
     1
370
    -2
100
AcDbLine
 10
1378.969809447894
 20
1211.542323576307
 30
0.0
 11
1322.159208326072
 21
1242.476279100263
 31
0.0
  0
LINE
  5
24CB
330
24C8
100
AcDbEntity
  8
08
 62
     1
370
    -2
100
AcDbLine
 10
1403.121518525549
 20
1198.391470043995
 30
0.0
 11
1392.143468944797
 21
1204.3691307405
 31
0.0
  0
SOLID
  5
24CC
330
24C8
100
AcDbEntity
  8
08
 62
     1
100
AcDbTrace
 10
1417.490710161752
 20
1193.413887124338
 30
0.0
 11
1415.09964588315
 21
1189.022667292037
 31
0.0
 12
1403.121518525549
 22
1198.391470043995
 32
0.0
 13
1403.121518525549
 23
1198.391470043995
 33
0.0
  0
SOLID
  5
24CD
330
24C8
100
AcDbEntity
  8
08
 62
     1
100
AcDbTrace
 10
1380.165341587195
 20
1213.737933492457
 30
0.0
 11
1377.774277308593
 21
1209.346713660157
 31
0.0
 12
1392.143468944797
 22
1204.3691307405
 32
0.0
 13
1392.143468944797
 23
1204.3691307405
 33
0.0
  0
MTEXT
  5
24CE
330
24C8
100
AcDbEntity
  8
08
 62
     3
100
AcDbMText
 10
1350.793200764632
 20
1243.112689546286
 30
0.0
 40
21.0
 41
0.0
 71
     5
 72
     1
  1
%%c12.5
 11
0.8782439664601721
 21
-0.4782128557204459
 31
0.0
 73
     1
 44
1.0
  0
POINT
  5
24CF
330
24C8
100
AcDbEntity
  8
Defpoints
 62
     0
100
AcDbPoint
 10
1392.143468944797
 20
1204.3691307405
 30
0.0
  0
POINT
  5
24D0
330
24C8
100
AcDbEntity
  8
Defpoints
 62
     0
100
AcDbPoint
 10
1403.121518525549
 20
1198.391470043995
 30
0.0
  0
ENDBLK
  5
24D2
330
24C8
100
AcDbEntity
  8
0
100
AcDbBlockEnd
  0
BLOCK
  5
24DD
330
24D4
100
AcDbEntity
  8
0
100
AcDbBlockBegin
  2
*D24
 70
     1
 10
0.0
 20
0.0
 30
0.0
  3
*D24
  1

  0
LINE
  5
24D5
330
24D4
100
AcDbEntity
  8
08
 62
     1
370
    -2
100
AcDbLine
 10
1412.939370943825
 20
746.7126656095286
 30
0.0
 11
1423.769708591457
 21
736.3346221311896
 31
0.0
  0
LINE
  5
24D6
330
24D4
100
AcDbEntity
  8
08
 62
     1
370
    -2
100
AcDbLine
 10
1382.32561652652
 20
776.0479351749665
 30
0.0
 11
1334.992492264557
 21
821.4043439535682
 31
0.0
  0
LINE
  5
24D7
330
24D4
100
AcDbEntity
  8
08
 62
     1
370
    -2
100
AcDbLine
 10
1402.109033296194
 20
757.0907090878675
 30
0.0
 11
1393.155954174151
 21
765.6698916966277
 31
0.0
  0
SOLID
  5
24D8
330
24D4
100
AcDbEntity
  8
08
 62
     1
100
AcDbTrace
 10
1414.669044856882
 20
748.5177218841338
 30
0.0
 11
1411.209697030769
 21
744.9076093349233
 31
0.0
 12
1402.109033296194
 22
757.0907090878675
 32
0.0
 13
1402.109033296194
 23
757.0907090878675
 33
0.0
  0
SOLID
  5
24D9
330
24D4
100
AcDbEntity
  8
08
 62
     1
100
AcDbTrace
 10
1384.055290439576
 20
777.8529914495717
 30
0.0
 11
1380.595942613463
 21
774.2428789003612
 31
0.0
 12
1393.155954174151
 22
765.6698916966277
 32
0.0
 13
1393.155954174151
 23
765.6698916966277
 33
0.0
  0
MTEXT
  5
24DA
330
24D4
100
AcDbEntity
  8
08
 62
     3
100
AcDbMText
 10
1363.104456921506
 20
814.205474438048
 30
0.0
 40
21.0
 41
0.0
 71
     5
 72
     1
  1
%%c12.4
 11
0.7220225098421112
 21
-0.691869565222592
 31
0.0
 73
     1
 44
1.0
  0
POINT
  5
24DB
330
24D4
100
AcDbEntity
  8
Defpoints
 62
     0
100
AcDbPoint
 10
1393.155954174151
 20
765.6698916966277
 30
0.0
  0
POINT
  5
24DC
330
24D4
100
AcDbEntity
  8
Defpoints
 62
     0
100
AcDbPoint
 10
1402.109033296194
 20
757.0907090878675
 30
0.0
  0
ENDBLK
  5
24DE
330
24D4
100
AcDbEntity
  8
0
100
AcDbBlockEnd
  0
BLOCK
  5
24E9
330
24E0
100
AcDbEntity
  8
0
100
AcDbBlockBegin
  2
*D25
 70
     1
 10
0.0
 20
0.0
 30
0.0
  3
*D25
  1

  0
LINE
  5
24E1
330
24E0
100
AcDbEntity
  8
08
 62
     1
370
    -2
100
AcDbLine
 10
2357.872325945109
 20
630.5045242402326
 30
0.0
 11
2368.927311937186
 21
620.366117821323
 31
0.0
  0
LINE
  5
24E2
330
24E0
100
AcDbEntity
  8
08
 62
     1
370
    -2
100
AcDbLine
 10
2329.792661525235
 20
656.2560765442627
 30
0.0
 11
2290.231509753709
 21
692.5371749868443
 31
0.0
  0
LINE
  5
24E3
330
24E0
100
AcDbEntity
  8
08
 62
     1
370
    -2
100
AcDbLine
 10
2346.817339953032
 20
640.6429306591421
 30
0.0
 11
2340.847647517311
 21
646.1176701253528
 31
0.0
  0
SOLID
  5
24E4
330
24E0
100
AcDbEntity
  8
08
 62
     1
100
AcDbTrace
 10
2359.562060348261
 20
632.3470219055785
 30
0.0
 11
2356.182591541958
 21
628.6620265748864
 31
0.0
 12
2346.817339953032
 22
640.6429306591421
 32
0.0
 13
2346.817339953032
 23
640.6429306591421
 33
0.0
  0
SOLID
  5
24E5
330
24E0
100
AcDbEntity
  8
08
 62
     1
100
AcDbTrace
 10
2331.482395928386
 20
658.0985742096085
 30
0.0
 11
2328.102927122082
 21
654.4135788789161
 31
0.0
 12
2340.847647517311
 22
646.1176701253528
 32
0.0
 13
2340.847647517311
 23
646.1176701253528
 33
0.0
  0
MTEXT
  5
24E6
330
24E0
100
AcDbEntity
  8
08
 62
     3
100
AcDbMText
 10
2314.116078741397
 20
689.9680656674807
 30
0.0
 40
21.0
 41
0.0
 71
     5
 72
     1
  1
%%C8.1
 11
0.7369990661384477
 21
-0.675893761260641
 31
0.0
 73
     1
 44
1.0
  0
POINT
  5
24E7
330
24E0
100
AcDbEntity
  8
Defpoints
 62
     0
100
AcDbPoint
 10
2340.847647517311
 20
646.1176701253528
 30
0.0
  0
POINT
  5
24E8
330
24E0
100
AcDbEntity
  8
Defpoints
 62
     0
100
AcDbPoint
 10
2346.817339953032
 20
640.6429306591421
 30
0.0
  0
ENDBLK
  5
24EA
330
24E0
100
AcDbEntity
  8
0
100
AcDbBlockEnd
  0
BLOCK
  5
24F5
330
24EC
100
AcDbEntity
  8
0
100
AcDbBlockBegin
  2
*D26
 70
     1
 10
0.0
 20
0.0
 30
0.0
  3
*D26
  1

  0
LINE
  5
24ED
330
24EC
100
AcDbEntity
  8
08
 62
     1
370
    -2
100
AcDbLine
 10
2339.62794763851
 20
1331.117680697628
 30
0.0
 11
2327.813344412793
 21
1340.359712434149
 31
0.0
  0
LINE
  5
24EE
330
24EC
100
AcDbEntity
  8
08
 62
     1
370
    -2
100
AcDbLine
 10
2369.637039831834
 20
1307.642920086866
 30
0.0
 11
2411.916542643323
 21
1274.569570155187
 31
0.0
  0
LINE
  5
24EF
330
24EC
100
AcDbEntity
  8
08
 62
     1
370
    -2
100
AcDbLine
 10
2351.442550864228
 20
1321.875648961108
 30
0.0
 11
2357.822436606116
 21
1316.884951823386
 31
0.0
  0
SOLID
  5
24F0
330
24EC
100
AcDbEntity
  8
08
 62
     1
100
AcDbTrace
 10
2341.168286261264
 20
1333.086781235248
 30
0.0
 11
2338.087609015757
 21
1329.148580160009
 31
0.0
 12
2351.442550864228
 22
1321.875648961108
 32
0.0
 13
2351.442550864228
 23
1321.875648961108
 33
0.0
  0
SOLID
  5
24F1
330
24EC
100
AcDbEntity
  8
08
 62
     1
100
AcDbTrace
 10
2371.177378454587
 20
1309.612020624485
 30
0.0
 11
2368.096701209081
 21
1305.673819549246
 31
0.0
 12
2357.822436606116
 22
1316.884951823386
 32
0.0
 13
2357.822436606116
 23
1316.884951823386
 33
0.0
  0
MTEXT
  5
24F2
330
24EC
100
AcDbEntity
  8
08
 62
     3
100
AcDbMText
 10
2405.464023000133
 20
1297.709102317198
 30
0.0
 40
21.0
 41
0.0
 71
     5
 72
     1
  1
%%c8.1
 11
0.7876402150478606
 21
-0.6161354491013807
 31
0.0
 73
     1
 44
1.0
  0
POINT
  5
24F3
330
24EC
100
AcDbEntity
  8
Defpoints
 62
     0
100
AcDbPoint
 10
2357.822436606116
 20
1316.884951823386
 30
0.0
  0
POINT
  5
24F4
330
24EC
100
AcDbEntity
  8
Defpoints
 62
     0
100
AcDbPoint
 10
2351.442550864228
 20
1321.875648961108
 30
0.0
  0
ENDBLK
  5
24F6
330
24EC
100
AcDbEntity
  8
0
100
AcDbBlockEnd
  0
BLOCK
  5
2501
330
24F8
100
AcDbEntity
  8
0
100
AcDbBlockBegin
  2
*D27
 70
     1
 10
0.0
 20
0.0
 30
0.0
  3
*D27
  1

  0
LINE
  5
24F9
330
24F8
100
AcDbEntity
  8
08
 62
     1
370
    -2
100
AcDbLine
 10
440.5573441838659
 20
1306.190536592719
 30
0.0
 11
429.3464937509023
 21
1296.224753504084
 31
0.0
  0
LINE
  5
24FA
330
24F8
100
AcDbEntity
  8
08
 62
     1
370
    -2
100
AcDbLine
 10
469.1076432864799
 20
1331.570064191776
 30
0.0
 11
512.1123136712007
 21
1369.798673110883
 31
0.0
  0
LINE
  5
24FB
330
24F8
100
AcDbEntity
  8
08
 62
     1
370
    -2
100
AcDbLine
 10
451.7681946168294
 20
1316.156319681354
 30
0.0
 11
457.8967928535162
 21
1321.604281103141
 31
0.0
  0
SOLID
  5
24FC
330
24F8
100
AcDbEntity
  8
08
 62
     1
100
AcDbTrace
 10
438.89638033576
 20
1308.059011664879
 30
0.0
 11
442.2183080319716
 21
1304.322061520558
 31
0.0
 12
451.7681946168294
 22
1316.156319681354
 32
0.0
 13
451.7681946168294
 23
1316.156319681354
 33
0.0
  0
SOLID
  5
24FD
330
24F8
100
AcDbEntity
  8
08
 62
     1
100
AcDbTrace
 10
467.446679438374
 20
1333.438539263936
 30
0.0
 11
470.7686071345857
 21
1329.701589119615
 31
0.0
 12
457.8967928535162
 22
1321.604281103141
 32
0.0
 13
457.8967928535162
 23
1321.604281103141
 33
0.0
  0
MTEXT
  5
24FE
330
24F8
100
AcDbEntity
  8
08
 62
     3
100
AcDbMText
 10
486.7465365232917
 20
1366.319112909187
 30
0.0
 40
21.0
 41
0.0
 71
     5
 72
     1
  1
%%c8.2
 11
0.7473900288642371
 21
0.664385539242325
 31
0.0
 73
     1
 44
1.0
  0
POINT
  5
24FF
330
24F8
100
AcDbEntity
  8
Defpoints
 62
     0
100
AcDbPoint
 10
457.8967928535162
 20
1321.604281103141
 30
0.0
  0
POINT
  5
2500
330
24F8
100
AcDbEntity
  8
Defpoints
 62
     0
100
AcDbPoint
 10
451.7681946168294
 20
1316.156319681354
 30
0.0
  0
ENDBLK
  5
2502
330
24F8
100
AcDbEntity
  8
0
100
AcDbBlockEnd
  0
BLOCK
  5
250D
330
2504
100
AcDbEntity
  8
0
100
AcDbBlockBegin
  2
*D28
 70
     1
 10
0.0
 20
0.0
 30
0.0
  3
*D28
  1

  0
LINE
  5
2505
330
2504
100
AcDbEntity
  8
08
 62
     1
370
    -2
100
AcDbLine
 10
464.3843387629072
 20
659.8047412218814
 30
0.0
 11
471.9252690479605
 21
672.7714050347503
 31
0.0
  0
LINE
  5
2506
330
2504
100
AcDbEntity
  8
08
 62
     1
370
    -2
100
AcDbLine
 10
445.2806487074386
 20
626.9558595626135
 30
0.0
 11
424.2660366448689
 21
590.8211388487392
 31
0.0
  0
LINE
  5
2507
330
2504
100
AcDbEntity
  8
08
 62
     1
370
    -2
100
AcDbLine
 10
456.8434084778537
 20
646.8380774090125
 30
0.0
 11
452.821578992492
 21
639.9225233754825
 31
0.0
  0
SOLID
  5
2508
330
2504
100
AcDbEntity
  8
08
 62
     1
100
AcDbTrace
 10
462.223228127429
 20
661.0615629360571
 30
0.0
 11
466.5454493983853
 21
658.5479195077059
 31
0.0
 12
456.8434084778537
 22
646.8380774090125
 32
0.0
 13
456.8434084778537
 23
646.8380774090125
 33
0.0
  0
SOLID
  5
2509
330
2504
100
AcDbEntity
  8
08
 62
     1
100
AcDbTrace
 10
443.1195380719604
 20
628.2126812767891
 30
0.0
 11
447.4417593429168
 21
625.699037848438
 31
0.0
 12
452.821578992492
 22
639.9225233754825
 32
0.0
 13
452.821578992492
 23
639.9225233754825
 33
0.0
  0
MTEXT
  5
250A
330
2504
100
AcDbEntity
  8
08
 62
     3
100
AcDbMText
 10
418.6845469114016
 20
609.5690510700427
 30
0.0
 40
21.0
 41
0.0
 71
     5
 72
     1
  1
%%c8
 11
0.5027286856702253
 21
0.8644442541912622
 31
0.0
 73
     1
 44
1.0
  0
POINT
  5
250B
330
2504
100
AcDbEntity
  8
Defpoints
 62
     0
100
AcDbPoint
 10
452.821578992492
 20
639.9225233754825
 30
0.0
  0
POINT
  5
250C
330
2504
100
AcDbEntity
  8
Defpoints
 62
     0
100
AcDbPoint
 10
456.8434084778537
 20
646.8380774090125
 30
0.0
  0
ENDBLK
  5
250E
330
2504
100
AcDbEntity
  8
0
100
AcDbBlockEnd
  0
ENDSEC
  0
SECTION
  2
ENTITIES
  0
LINE
  5
235E
330
1F
100
AcDbEntity
  8
01
 48
1.199999999999999
100
AcDbLine
 10
425.6324937351728
 20
1331.380300392247
 30
0.0
 11
2373.632493735172
 21
1331.380300392247
 31
0.0
  0
LINE
  5
235F
330
1F
100
AcDbEntity
  8
01
 48
1.199999999999999
100
AcDbLine
 10
2373.632493735172
 20
1331.380300392247
 30
0.0
 11
2373.632493735172
 21
631.3803003922475
 31
0.0
  0
LINE
  5
2360
330
1F
100
AcDbEntity
  8
01
 48
1.199999999999999
100
AcDbLine
 10
2373.632493735172
 20
631.3803003922475
 30
0.0
 11
425.6324937351728
 21
631.3803003922475
 31
0.0
  0
INSERT
  5
238F
330
1F
100
AcDbEntity
  8
08
100
AcDbBlockReference
  2
*U6
 10
2490.0
 20
30.0
 30
0.0
 41
6.0
 42
6.0
 43
6.0
1001
INTECAD_HUST_CAD_CENTER
1000
TITLE
1002
{
1000
type
1000
heada
1000
name
1000
heada
1000
length
1040
179.9999999999961
1000
height
1040
55.9999999999988
1000
rightbottompoint
1011
2490.0
1021
30.0
1031
0.0
1000
ceset
1070
     0
1000
maintf
1070
     1
1002
}
1000
OBJECT
1002
{
1000
OBJECTID
1000
TITLE
1002
}
1000
INTECAD
1002
{
1000
VERSION
1000
V60
1002
}
1000
TITDATA
1002
{
1000
name
1005
23F2
1000
code
1005
0
1000
material
1005
0
1000
quantity
1005
0
1000
weight
1005
0
1000
totalpaper
1005
0
1000
no
1005
0
1000
scale
1005
23F4
1002
}
  0
INSERT
  5
2399
330
1F
100
AcDbEntity
  8
04
100
AcDbBlockReference
  2
*U7
 10
486.0
 20
1668.0
 30
0.0
 41
6.0
 42
6.0
 43
6.0
1001
INTECAD_HUST_CAD_CENTER
1000
TITLE
1002
{
1000
type
1000
tfcode
1000
name
1000
tfcode
1000
length
1040
56.0
1000
height
1040
14.0
1000
rightbottompoint
1011
486.0
1021
1668.0
1031
0.0
1000
ceset
1070
     0
1002
}
1000
OBJECT
1002
{
1000
OBJECTID
1000
TITLE
1002
}
1000
INTECAD
1002
{
1000
VERSION
1000
V60
1002
}
1000
TITDATA
1002
{
1000
code
1005
0
1002
}
  0
INSERT
  5
23AC
330
1F
100
AcDbEntity
  8
01
100
AcDbBlockReference
  2
*U8
 10
150.0
 20
30.0
 30
0.0
 41
6.0
 42
6.0
 43
6.0
1001
INTECAD_HUST_CAD_CENTER
1000
TITLE
1002
{
1000
type
1000
headpl
1000
name
1000
headpl
1000
length
1040
25.0
1000
height
1040
47.80487804878052
1000
rightbottompoint
1011
150.0
1021
30.0
1031
0.0
1000
ceset
1070
     0
1002
}
1000
OBJECT
1002
{
1000
OBJECTID
1000
TITLE
1002
}
1000
INTECAD
1002
{
1000
VERSION
1000
V60
1002
}
1000
TITDATA
1002
{
1000
design
1005
0
1000
check
1005
0
1000
examine
1005
0
1000
technolog
1005
0
1000
standard
1005
0
1000
ratifier
1005
0
1002
}
  0
INSERT
  5
23F0
330
1F
100
AcDbEntity
  8
01
100
AcDbBlockReference
  2
*U9
 10
0.0
 20
0.0
 30
0.0
 41
6.0
 42
6.0
 43
6.0
1001
INTECAD_HUST_CAD_CENTER
1000
BOMTF
1002
{
1000
size
1000
A3
1000
length
1040
420.0
1000
height
1040
297.0
1000
insertpoint
1011
0.0
1021
0.0
1031
0.0
1000
ceset
1070
     0
1000
maintf
1070
     1
1000
btlname
1000
heada
1000
billheadname
1000
billhead
1000
tfcodename
1000
tfcode
1000
headplname
1000
headpl
1000
p0
1011
900.0
1021
180.0
1031
0.0
1000
p4
1011
14940.0
1021
10512.0
1031
0.0
1002
}
1000
OBJECT
1002
{
1000
OBJECTID
1000
BOMTF
1002
}
1000
BILLHEIGHT
1002
{
1070
    40
1070
    40
1070
    40
1070
    40
1070
    40
1070
    40
1070
    40
1070
    40
1070
    40
1070
    40
1070
    40
1070
    40
1070
    40
1070
    40
1070
    40
1070
    40
1070
    40
1070
    40
1070
    40
1070
    40
1070
    40
1070
    40
1070
    40
1070
    40
1070
    40
1070
    40
1070
    40
1070
    40
1070
    40
1070
    40
1070
    40
1070
    40
1070
    40
1070
    40
1070
    40
1070
    40
1070
    40
1070
    40
1070
    40
1070
    40
1002
}
  0
TEXT
  5
23F2
330
1F
100
AcDbEntity
  8
11
100
AcDbText
 10
2297.246138888888
 20
177.0
 30
0.0
 40
42.0
  1
测试A
 41
0.684975077881623
 72
     5
 11
2382.753861111111
 21
177.0
 31
0.0
100
AcDbText
  0
TEXT
  5
23F4
330
1F
100
AcDbEntity
  8
11
100
AcDbText
 10
2140.74792519685
 20
96.0
 30
0.0
 40
30.0
  1
1:6
 41
0.6312286919831294
 72
     5
 11
2167.252074803149
 21
96.0
 31
0.0
100
AcDbText
  0
LINE
  5
23F5
330
1F
100
AcDbEntity
  8
01
 48
1.199999999999999
100
AcDbLine
 10
425.6324937351728
 20
1331.380300392247
 30
0.0
 11
425.6324937351728
 21
631.3803003922475
 31
0.0
  0
LINE
  5
23F6
330
1F
100
AcDbEntity
  8
05
  6
G
 62
     4
 48
1.199999999999999
100
AcDbLine
 10
2352.882493735172
 20
643.3803003922475
 30
0.0
 11
2334.782493735172
 21
643.3803003922475
 31
0.0
  0
LINE
  5
23F7
330
1F
100
AcDbEntity
  8
05
  6
G
 62
     4
 48
1.199999999999999
100
AcDbLine
 10
1386.382493735172
 20
1201.380300392247
 30
0.0
 11
1408.882493735172
 21
1201.380300392247
 31
0.0
  0
LINE
  5
23F8
330
1F
100
AcDbEntity
  8
05
  6
G
 62
     4
 48
1.199999999999999
100
AcDbLine
 10
1408.832493735173
 20
761.3803003922476
 30
0.0
 11
1386.432493735172
 21
761.3803003922476
 31
0.0
  0
LINE
  5
23F9
330
1F
100
AcDbEntity
  8
05
  6
G
 62
     4
 48
1.199999999999999
100
AcDbLine
 10
1397.632493735172
 20
1212.630300392247
 30
0.0
 11
1397.632493735172
 21
1190.130300392247
 31
0.0
  0
CIRCLE
  5
23FA
330
1F
100
AcDbEntity
  8
01
100
AcDbCircle
 10
1397.632493735172
 20
1201.380300392247
 30
0.0
 40
6.25
  0
CIRCLE
  5
23FB
330
1F
100
AcDbEntity
  8
01
100
AcDbCircle
 10
1397.632493735172
 20
761.3803003922476
 30
0.0
 40
6.2
  0
LINE
  5
23FE
330
1F
100
AcDbEntity
  8
05
  6
G
 62
     4
 48
1.199999999999999
100
AcDbLine
 10
1397.632493735172
 20
772.5803003922476
 30
0.0
 11
1397.632493735172
 21
750.1803003922475
 31
0.0
  0
DIMENSION
  5
23FF
330
1F
100
AcDbEntity
  8
08
100
AcDbDimension
  2
*D10
 10
1397.632493735172
 20
1437.010208056207
 30
0.0
 11
1885.632493735172
 21
1451.260208056207
 31
0.0
 70
    32
 71
     5
 42
976.0
  3
inte_cir_cir7
100
AcDbAlignedDimension
 13
2373.632493735172
 23
1331.380300392247
 33
0.0
 14
1397.632493735172
 24
1212.630300392247
 34
0.0
100
AcDbRotatedDimension
1001
ACAD
1000
DSTYLE
1002
{
1070
    74
1070
     0
1070
   289
1070
     0
1002
}
  0
DIMENSION
  5
240C
330
1F
100
AcDbEntity
  8
08
100
AcDbDimension
  2
*D11
 10
311.7051589361635
 20
631.3803003922475
 30
0.0
 11
297.4551589361634
 21
981.3803003922476
 31
0.0
 70
    32
 71
     5
 42
699.9999999999999
  3
inte_cir_cir7
100
AcDbAlignedDimension
 13
425.6324937351728
 23
1331.380300392247
 33
0.0
 14
425.6324937351728
 24
631.3803003922475
 34
0.0
 50
90.0
100
AcDbRotatedDimension
1001
ACAD
1000
DSTYLE
1002
{
1070
    74
1070
     0
1070
   289
1070
     0
1002
}
  0
DIMENSION
  5
2419
330
1F
100
AcDbEntity
  8
08
100
AcDbDimension
  2
*D12
 10
2373.632493735172
 20
1526.302726290279
 30
0.0
 11
1399.632493735172
 21
1540.552726290279
 31
0.0
 70
    32
 71
     5
 42
1948.0
  3
inte_cir_cir7
100
AcDbAlignedDimension
 13
425.6324937351728
 23
1331.380300392247
 33
0.0
 14
2373.632493735172
 24
1331.380300392247
 34
0.0
100
AcDbRotatedDimension
1001
ACAD
1000
DSTYLE
1002
{
1070
    74
1070
     0
1070
   289
1070
     0
1002
}
  0
LINE
  5
2426
330
1F
100
AcDbEntity
  8
05
  6
G
 62
     4
 48
1.199999999999999
100
AcDbLine
 10
2343.832493735172
 20
652.4303003922475
 30
0.0
 11
2343.832493735172
 21
634.3303003922476
 31
0.0
  0
LINE
  5
2427
330
1F
100
AcDbEntity
  8
05
  6
G
 62
     4
 48
1.199999999999999
100
AcDbLine
 10
2354.632493735172
 20
1328.430300392247
 30
0.0
 11
2354.632493735172
 21
1310.330300392247
 31
0.0
  0
LINE
  5
2428
330
1F
100
AcDbEntity
  8
05
  6
G
 62
     4
 48
1.199999999999999
100
AcDbLine
 10
2345.582493735173
 20
1319.380300392247
 30
0.0
 11
2363.682493735173
 21
1319.380300392247
 31
0.0
  0
CIRCLE
  5
2429
330
1F
100
AcDbEntity
  8
01
100
AcDbCircle
 10
2354.632493735172
 20
1319.380300392247
 30
0.0
 40
4.049999999999999
  0
CIRCLE
  5
242B
330
1F
100
AcDbEntity
  8
01
100
AcDbCircle
 10
2343.832493735172
 20
643.3803003922475
 30
0.0
 40
4.049999999999999
  0
LINE
  5
242D
330
1F
100
AcDbEntity
  8
05
  6
G
 62
     4
 48
1.199999999999999
100
AcDbLine
 10
463.8324937351728
 20
643.3803003922475
 30
0.0
 11
445.8324937351728
 21
643.3803003922475
 31
0.0
  0
LINE
  5
242E
330
1F
100
AcDbEntity
  8
05
  6
G
 62
     4
 48
1.199999999999999
100
AcDbLine
 10
445.7324937351727
 20
1318.880300392247
 30
0.0
 11
463.9324937351728
 21
1318.880300392247
 31
0.0
  0
LINE
  5
242F
330
1F
100
AcDbEntity
  8
05
  6
G
 62
     4
 48
1.199999999999999
100
AcDbLine
 10
454.8324937351728
 20
1327.980300392247
 30
0.0
 11
454.8324937351728
 21
1309.780300392247
 31
0.0
  0
CIRCLE
  5
2430
330
1F
100
AcDbEntity
  8
01
100
AcDbCircle
 10
454.8324937351728
 20
1318.880300392247
 30
0.0
 40
4.099999999999999
  0
CIRCLE
  5
2431
330
1F
100
AcDbEntity
  8
01
100
AcDbCircle
 10
454.8324937351728
 20
643.3803003922475
 30
0.0
 40
4.0
  0
LINE
  5
2434
330
1F
100
AcDbEntity
  8
05
  6
G
 62
     4
 48
1.199999999999999
100
AcDbLine
 10
454.8324937351728
 20
652.3803003922475
 30
0.0
 11
454.8324937351727
 21
634.3803003922475
 31
0.0
  0
DIMENSION
  5
2435
330
1F
100
AcDbEntity
  8
08
100
AcDbDimension
  2
*D13
 10
2373.632493735172
 20
535.840015643289
 30
0.0
 11
2423.186294035392
 21
550.0920825724229
 31
0.0
 70
    32
 71
     5
 42
29.80000000000018
  3
inte_cir_cir7
100
AcDbAlignedDimension
 13
2343.832493735172
 23
634.3303003922476
 33
0.0
 14
2373.632493735172
 24
631.3803003922475
 34
0.0
100
AcDbRotatedDimension
1001
ACAD
1000
DSTYLE
1002
{
1070
    74
1070
     0
1070
   289
1070
     0
1002
}
  0
DIMENSION
  5
2444
330
1F
100
AcDbEntity
  8
08
100
AcDbDimension
  2
*D14
 10
2275.093863424737
 20
631.3803003922477
 30
0.0
 11
2260.841796495604
 21
590.5033019965787
 31
0.0
 70
    32
 71
     5
 42
12.0
  3
inte_cir_cir7
100
AcDbAlignedDimension
 13
2334.782493735172
 23
643.3803003922475
 33
0.0
 14
2334.782493735172
 24
631.3803003922475
 34
0.0
 50
90.0
100
AcDbRotatedDimension
1001
ACAD
1000
DSTYLE
1002
{
1070
    74
1070
     0
1070
   289
1070
     0
1002
}
  0
DIMENSION
  5
2453
330
1F
100
AcDbEntity
  8
08
100
AcDbDimension
  2
*D15
 10
2275.093863424737
 20
643.3803003922477
 30
0.0
 11
2260.843863424737
 21
981.380300392248
 31
0.0
 70
    32
 71
     5
 42
675.9999999999998
  3
inte_cir_cir7
100
AcDbAlignedDimension
 13
2363.682493735173
 23
1319.380300392247
 33
0.0
 14
2352.882493735172
 24
643.3803003922475
 34
0.0
 50
90.0
100
AcDbRotatedDimension
1001
ACAD
1000
DSTYLE
1002
{
1070
    74
1070
     0
1070
   289
1070
     0
1002
}
  0
DIMENSION
  5
2460
330
1F
100
AcDbEntity
  8
08
100
AcDbDimension
  2
*D16
 10
1470.255510285109
 20
761.3803003922476
 30
0.0
 11
1456.005510285109
 21
696.3803003922478
 31
0.0
 70
    32
 71
     5
 42
130.0
  3
inte_cir_cir7
100
AcDbAlignedDimension
 13
1399.632493735172
 23
631.3803003922475
 33
0.0
 14
1408.832493735173
 24
761.3803003922476
 34
0.0
 50
90.0
100
AcDbRotatedDimension
1001
ACAD
1000
DSTYLE
1002
{
1070
    74
1070
     0
1070
   289
1070
     0
1002
}
  0
DIMENSION
  5
246D
330
1F
100
AcDbEntity
  8
08
100
AcDbDimension
  2
*D17
 10
1470.255510285109
 20
1201.380300392247
 30
0.0
 11
1456.005510285109
 21
981.3803003922476
 31
0.0
 70
    32
 71
     5
 42
439.9999999999998
  3
inte_cir_cir7
100
AcDbAlignedDimension
 13
1408.882493735172
 23
761.3803003922476
 33
0.0
 14
1408.882493735172
 24
1201.380300392247
 34
0.0
 50
90.0
100
AcDbRotatedDimension
1001
ACAD
1000
DSTYLE
1002
{
1070
    74
1070
     0
1070
   289
1070
     0
1002
}
  0
DIMENSION
  5
247A
330
1F
100
AcDbEntity
  8
08
100
AcDbDimension
  2
*D18
 10
454.8324937351727
 20
535.840015643289
 30
0.0
 11
1399.332493735172
 21
550.090015643289
 31
0.0
 70
    32
 71
     5
 42
1889.0
  3
inte_cir_cir7
100
AcDbAlignedDimension
 13
2343.832493735172
 23
634.3303003922476
 33
0.0
 14
454.8324937351727
 24
634.3803003922475
 34
0.0
100
AcDbRotatedDimension
1001
ACAD
1000
DSTYLE
1002
{
1070
    74
1070
     0
1070
   289
1070
     0
1002
}
  0
DIMENSION
  5
2492
330
1F
100
AcDbEntity
  8
08
100
AcDbDimension
  2
*D19
 10
522.285311983729
 20
631.3803003922475
 30
0.0
 11
508.0332450545951
 21
590.5033019965784
 31
0.0
 70
    32
 71
     5
 42
12.0
  3
inte_cir_cir7
100
AcDbAlignedDimension
 13
463.8324937351728
 23
643.3803003922475
 33
0.0
 14
463.8324937351728
 24
631.3803003922475
 34
0.0
 50
90.0
100
AcDbRotatedDimension
1001
ACAD
1000
DSTYLE
1002
{
1070
    74
1070
     0
1070
   289
1070
     0
1002
}
  0
LINE
  5
24A1
330
1F
100
AcDbEntity
  8
02
100
AcDbLine
 10
454.8324937351728
 20
1309.780300392247
 30
0.0
 11
454.8324937351728
 21
631.3803003922475
 31
0.0
  0
DIMENSION
  5
24A2
330
1F
100
AcDbEntity
  8
08
100
AcDbDimension
  2
*D20
 10
522.285311983729
 20
643.3803003922475
 30
0.0
 11
508.035311983729
 21
981.1303003922475
 31
0.0
 70
    32
 71
     5
 42
675.4999999999999
  3
inte_cir_cir7
100
AcDbAlignedDimension
 13
463.9324937351728
 23
1318.880300392247
 33
0.0
 14
463.9324937351728
 24
643.3803003922475
 34
0.0
 50
90.0
100
AcDbRotatedDimension
1001
ACAD
1000
DSTYLE
1002
{
1070
    74
1070
     0
1070
   289
1070
     0
1002
}
  0
DIMENSION
  5
24C7
330
1F
100
AcDbEntity
  8
08
100
AcDbDimension
  2
*D23
 10
1403.121518525549
 20
1198.391470043995
 30
0.0
 11
1350.793200764632
 21
1243.112689546286
 31
0.0
 70
    35
  1
%%c12.5
 71
     5
 42
12.50000000000011
  3
inte_cir_cir7
100
AcDbDiametricDimension
 15
1392.143468944797
 25
1204.3691307405
 35
0.0
 40
0.0
1001
ACAD
1000
DSTYLE
1002
{
1070
    74
1070
     0
1070
   289
1070
     0
1002
}
  0
DIMENSION
  5
24D3
330
1F
100
AcDbEntity
  8
08
100
AcDbDimension
  2
*D24
 10
1402.109033296194
 20
757.0907090878675
 30
0.0
 11
1363.104456921506
 21
814.205474438048
 31
0.0
 70
    35
  1
%%c12.4
 71
     5
 42
12.40000000000009
  3
inte_cir_cir7
100
AcDbDiametricDimension
 15
1393.155954174151
 25
765.6698916966277
 35
0.0
 40
0.0
1001
ACAD
1000
DSTYLE
1002
{
1070
    74
1070
     0
1070
   289
1070
     0
1002
}
  0
DIMENSION
  5
24DF
330
1F
100
AcDbEntity
  8
08
100
AcDbDimension
  2
*D25
 10
2346.817339953032
 20
640.6429306591421
 30
0.0
 11
2314.116078741397
 21
689.9680656674807
 31
0.0
 70
    35
  1
%%C8.1
 71
     5
 42
8.099999999999681
  3
inte_cir_cir7
100
AcDbDiametricDimension
 15
2340.847647517311
 25
646.1176701253528
 35
0.0
 40
0.0
1001
ACAD
1000
DSTYLE
1002
{
1070
    74
1070
     0
1070
   289
1070
     0
1002
}
  0
DIMENSION
  5
24EB
330
1F
100
AcDbEntity
  8
08
100
AcDbDimension
  2
*D26
 10
2351.442550864228
 20
1321.875648961108
 30
0.0
 11
2405.464023000133
 21
1297.709102317198
 31
0.0
 70
    35
  1
%%c8.1
 71
     5
 42
8.100000000000136
  3
inte_cir_cir7
100
AcDbDiametricDimension
 15
2357.822436606116
 25
1316.884951823386
 35
0.0
 40
0.0
1001
ACAD
1000
DSTYLE
1002
{
1070
    74
1070
     0
1070
   289
1070
     0
1002
}
  0
DIMENSION
  5
24F7
330
1F
100
AcDbEntity
  8
08
100
AcDbDimension
  2
*D27
 10
451.7681946168294
 20
1316.156319681354
 30
0.0
 11
486.7465365232917
 21
1366.319112909187
 31
0.0
 70
    35
  1
%%c8.2
 71
     5
 42
8.200000000000272
  3
inte_cir_cir7
100
AcDbDiametricDimension
 15
457.8967928535162
 25
1321.604281103141
 35
0.0
 40
0.0
1001
ACAD
1000
DSTYLE
1002
{
1070
    74
1070
     0
1070
   289
1070
     0
1002
}
  0
DIMENSION
  5
2503
330
1F
100
AcDbEntity
  8
08
100
AcDbDimension
  2
*D28
 10
456.8434084778537
 20
646.8380774090125
 30
0.0
 11
418.6845469114016
 21
609.5690510700427
 31
0.0
 70
    35
  1
%%c8
 71
     5
 42
7.999999999999886
  3
inte_cir_cir7
100
AcDbDiametricDimension
 15
452.821578992492
 25
639.9225233754825
 35
0.0
 40
0.0
1001
ACAD
1000
DSTYLE
1002
{
1070
    74
1070
     0
1070
   289
1070
     0
1002
}
  0
ENDSEC
  0
SECTION
  2
OBJECTS
  0
DICTIONARY
  5
C
330
0
100
AcDbDictionary
281
     1
  3
ACAD_GROUP
350
D
  3
ACAD_LAYOUT
350
1A
  3
ACAD_MLINESTYLE
350
17
  3
ACAD_PLOTSETTINGS
350
19
  3
ACAD_PLOTSTYLENAME
350
E
  3
AcDbVariableDictionary
350
1C8
  3
ASE_INDEX_DICTIONARY
350
14A0
  3
AutoCADSystemVar
350
44C
  3
Powerdim
350
44E
  0
DICTIONARY
  5
D
102
{ACAD_REACTORS
330
C
102
}
330
C
100
AcDbDictionary
281
     1
  0
DICTIONARY
  5
1A
102
{ACAD_REACTORS
330
C
102
}
330
C
100
AcDbDictionary
281
     1
  3
Model
350
22
  3
布局1
350
1E
  3
布局2
350
26
  0
DICTIONARY
  5
17
102
{ACAD_REACTORS
330
C
102
}
330
C
100
AcDbDictionary
281
     1
  3
Standard
350
18
  0
DICTIONARY
  5
19
102
{ACAD_REACTORS
330
C
102
}
330
C
100
AcDbDictionary
281
     1
  0
ACDBDICTIONARYWDFLT
  5
E
102
{ACAD_REACTORS
330
C
102
}
330
C
100
AcDbDictionary
281
     1
  3
Normal
350
F
100
AcDbDictionaryWithDefault
340
F
  0
DICTIONARY
  5
1C8
102
{ACAD_REACTORS
330
C
102
}
330
C
100
AcDbDictionary
281
     1
  3
DIMASSOC
350
1CA
  3
HIDETEXT
350
1C9
  0
DICTIONARY
  5
14A0
102
{ACAD_REACTORS
330
C
102
}
330
C
100
AcDbDictionary
281
     1
  3
ASEBlockHierarchyIndexRecord
350
14A1
1001
DCO15
1040
1681578854.968
  0
DICTIONARY
  5
44C
102
{ACAD_REACTORS
330
C
102
}
330
C
100
AcDbDictionary
281
     1
  3
dimdec
350
44D
  0
DICTIONARY
  5
44E
102
{ACAD_REACTORS
330
C
102
}
330
C
100
AcDbDictionary
281
     1
  3
color
350
452
  3
factor
350
451
  3
isbox
350
450
  3
isunderline
350
44F
  3
tolGCStyle
350
453
  0
LAYOUT
  5
22
102
{ACAD_REACTORS
330
1A
102
}
330
1A
100
AcDbPlotSettings
  1

  2
\\RNP77A6F1\AFICIO2045E
  4
A3
  6
GEN1
 40
5.027083396911621
 41
5.027085304260253
 42
5.027099609375
 43
5.027069091796875
 44
296.9259948730469
 45
419.9466552734374
 46
0.0
 47
0.0
 48
1753.437875345712
 49
0.0
140
3433.437875345712
141
1188.0
142
1.0
143
3.106138031631247
 70
 11952
 72
     1
 73
     1
 74
     1
  7
acad.ctb
 75
     0
147
0.3219431943514857
148
0.0704935517383092
149
0.0498490115865025
100
AcDbLayout
  1
Model
 70
     1
 71
     0
 10
0.0
 20
0.0
 11
12.0
 21
9.0
 12
0.0
 22
0.0
 32
0.0
 14
0.0
 24
0.0
 34
0.0
 15
0.0
 25
0.0
 35
0.0
146
0.0
 13
0.0
 23
0.0
 33
0.0
 16
1.0
 26
0.0
 36
0.0
 17
0.0
 27
1.0
 37
0.0
 76
     0
330
1F
  0
LAYOUT
  5
1E
102
{ACAD_REACTORS
330
1A
102
}
330
1A
100
AcDbPlotSettings
  1

  2
C:\Program Files\AutoCAD 2002\plotters\PublishToWeb DWF.pc3
  4

  6

 40
0.0
 41
0.0
 42
0.0
 43
0.0
 44
0.0
 45
0.0
 46
0.0
 47
0.0
 48
0.0
 49
0.0
140
0.0
141
0.0
142
1.0
143
1.0
 70
   688
 72
     0
 73
     0
 74
     5
  7

 75
    16
147
1.0
148
0.0
149
0.0
100
AcDbLayout
  1
布局1
 70
     1
 71
     1
 10
0.0
 20
0.0
 11
420.0
 21
297.0
 12
0.0
 22
0.0
 32
0.0
 14
1.000000000000000E+20
 24
1.000000000000000E+20
 34
1.000000000000000E+20
 15
-1.000000000000000E+20
 25
-1.000000000000000E+20
 35
-1.000000000000000E+20
146
0.0
 13
0.0
 23
0.0
 33
0.0
 16
1.0
 26
0.0
 36
0.0
 17
0.0
 27
1.0
 37
0.0
 76
     0
330
1B
  0
LAYOUT
  5
26
102
{ACAD_REACTORS
330
1A
102
}
330
1A
100
AcDbPlotSettings
  1

  2
C:\Program Files\AutoCAD 2002\plotters\PublishToWeb DWF.pc3
  4

  6

 40
0.0
 41
0.0
 42
0.0
 43
0.0
 44
0.0
 45
0.0
 46
0.0
 47
0.0
 48
0.0
 49
0.0
140
0.0
141
0.0
142
1.0
143
1.0
 70
   688
 72
     0
 73
     0
 74
     5
  7

 75
    16
147
1.0
148
0.0
149
0.0
100
AcDbLayout
  1
布局2
 70
     1
 71
     2
 10
0.0
 20
0.0
 11
12.0
 21
9.0
 12
0.0
 22
0.0
 32
0.0
 14
0.0
 24
0.0
 34
0.0
 15
0.0
 25
0.0
 35
0.0
146
0.0
 13
0.0
 23
0.0
 33
0.0
 16
1.0
 26
0.0
 36
0.0
 17
0.0
 27
1.0
 37
0.0
 76
     0
330
23
  0
MLINESTYLE
  5
18
102
{ACAD_REACTORS
330
17
102
}
330
17
100
AcDbMlineStyle
  2
STANDARD
 70
     0
  3

 62
   256
 51
90.0
 52
90.0
 71
     2
 49
0.5
 62
   256
  6
BYLAYER
 49
-0.5
 62
   256
  6
BYLAYER
  0
ACDBPLACEHOLDER
  5
F
102
{ACAD_REACTORS
330
E
102
}
330
E
  0
DICTIONARYVAR
  5
1CA
102
{ACAD_REACTORS
330
1C8
102
}
330
1C8
100
DictionaryVariables
280
     0
  1
1
  0
DICTIONARYVAR
  5
1C9
102
{ACAD_REACTORS
330
1C8
102
}
330
1C8
100
DictionaryVariables
280
     0
  1
1
  0
XRECORD
  5
14A1
102
{ACAD_REACTORS
330
14A0
102
}
330
14A0
100
AcDbXrecord
280
     1
  0
XRECORD
  5
44D
102
{ACAD_REACTORS
330
44C
102
}
330
44C
100
AcDbXrecord
280
     1
102
3
  0
XRECORD
  5
452
102
{ACAD_REACTORS
330
44E
102
}
330
44E
100
AcDbXrecord
280
     1
102
3
  0
XRECORD
  5
451
102
{ACAD_REACTORS
330
44E
102
}
330
44E
100
AcDbXrecord
280
     1
102
0.7
  0
XRECORD
  5
450
102
{ACAD_REACTORS
330
44E
102
}
330
44E
100
AcDbXrecord
280
     1
102
0
  0
XRECORD
  5
44F
102
{ACAD_REACTORS
330
44E
102
}
330
44E
100
AcDbXrecord
280
     1
102
0
  0
XRECORD
  5
453
102
{ACAD_REACTORS
330
44E
102
}
330
44E
100
AcDbXrecord
280
     1
102
0
  0
ENDSEC
  0
EOF
